# 3ds Max Wavefront OBJ Exporter v0.97b - (c)2007 guruware
# File Created: 23.01.2014 16:46:10

mtllib cloner_glass1.mtl

#
# object Glass1
#

v  -3.8255 10.5445 8.7721
v  -3.8255 33.8820 8.7721
v  -5.8434 10.5445 6.7509
v  -5.8434 33.8752 6.7509
v  -6.7540 33.8683 5.8426
v  -8.7687 33.8752 3.8549
v  -6.7540 10.5445 5.8426
v  -8.7687 10.5445 3.8549
v  -8.9100 10.5445 3.4962
v  -8.9100 33.8820 3.4963
v  -8.9198 10.5445 -3.4779
v  -8.9198 33.8820 -3.4779
v  -8.7731 10.5445 -3.8246
v  -8.7731 33.8820 -3.8246
v  -6.7640 10.5396 -5.8537
v  -6.7657 33.8752 -5.8559
v  -5.8603 10.5329 -6.7677
v  -5.8603 33.8683 -6.7677
v  -3.8577 10.5387 -8.7653
v  -3.8577 33.8752 -8.7652
v  -3.4978 10.5445 -8.9083
v  -3.4978 33.8820 -8.9083
v  3.4841 10.5444 -8.9229
v  3.4787 33.8820 -8.9220
v  3.8258 10.5445 -8.7666
v  3.8258 33.8820 -8.7665
v  5.8312 10.5445 -6.7524
v  5.8312 33.8752 -6.7524
v  6.7471 33.8683 -5.8394
v  8.7524 33.8752 -3.8646
v  6.7471 10.5445 -5.8394
v  8.7524 10.5445 -3.8646
v  8.9074 10.5445 -3.5009
v  8.9073 33.8820 -3.5010
v  8.9201 10.5445 3.4394
v  8.9201 33.8820 3.4394
v  8.7750 10.7110 3.8240
v  8.7731 33.8820 3.8240
v  6.7777 10.5445 5.8317
v  6.7777 33.8752 5.8317
v  5.8484 34.0348 6.7580
v  3.8591 34.0416 8.7629
v  5.8484 10.7110 6.7580
v  3.8591 10.7110 8.7629
v  3.4982 10.5445 8.9087
v  3.4982 33.8820 8.9087
v  -3.4694 10.5445 8.9253
v  -3.4694 33.8820 8.9253
v  3.7330 10.7110 8.8875
# 49 vertices

vn -0.7077 0.0000 0.7065
vn -0.7023 0.0000 0.7119
vn -1.0000 -0.0000 0.0014
vn -1.0000 0.0000 0.0014
vn -0.7106 0.0000 -0.7036
vn -0.7113 -0.0001 -0.7029
vn -0.7062 0.0000 -0.7080
vn -0.0021 0.0000 -1.0000
vn -0.0020 0.0000 -1.0000
vn 0.7087 0.0000 -0.7056
vn 0.7086 0.0000 -0.7056
vn 0.7017 0.0000 -0.7125
vn 1.0000 0.0000 -0.0018
vn 0.7089 0.0001 0.7053
vn 0.7093 0.0000 0.7049
vn 0.7099 0.0000 0.7043
vn 0.0024 0.0000 1.0000
vn 0.7029 0.0000 0.7113
# 18 vertex normals

vt 0.4781 0.8723 0.0000
vt 0.7777 0.8717 0.0000
vt 0.4786 0.9093 0.0000
vt 0.7774 0.9083 0.0000
vt 0.7764 0.9248 0.0000
vt 0.7762 0.9608 0.0000
vt 0.4796 0.9241 0.0000
vt 0.4791 0.9587 0.0000
vt 0.4778 0.8725 0.0000
vt 0.7759 0.8725 0.0000
vt 0.4778 0.9616 0.0000
vt 0.7759 0.9616 0.0000
vt 0.4759 0.8723 0.0000
vt 0.7796 0.8698 0.0000
vt 0.4762 0.9095 0.0000
vt 0.7798 0.9069 0.0000
vt 0.4760 0.9262 0.0000
vt 0.7797 0.9282 0.0000
vt 0.4758 0.9630 0.0000
vt 0.7796 0.9650 0.0000
vt 0.4683 0.8718 0.0000
vt 0.7830 0.8718 0.0000
vt 0.4683 0.9659 0.0000
vt 0.7830 0.9659 0.0000
vt 0.4709 0.8718 0.0000
vt 0.7840 0.8691 0.0000
vt 0.4712 0.9099 0.0000
vt 0.7842 0.9073 0.0000
vt 0.7841 0.9291 0.0000
vt 0.7840 0.9669 0.0000
vt 0.4711 0.9273 0.0000
vt 0.4709 0.9651 0.0000
vt 0.4656 0.8693 0.0000
vt 0.7816 0.8693 0.0000
vt 0.4656 0.9633 0.0000
vt 0.7816 0.9633 0.0000
vt 0.4749 0.8718 0.0000
vt 0.7828 0.8694 0.0000
vt 0.4752 0.9092 0.0000
vt 0.7830 0.9067 0.0000
vt 0.7829 0.9282 0.0000
vt 0.7828 0.9655 0.0000
vt 0.4751 0.9265 0.0000
vt 0.4749 0.9638 0.0000
vt 0.4633 0.8686 0.0000
vt 0.7840 0.8686 0.0000
vt 0.4633 0.9643 0.0000
vt 0.7840 0.9643 0.0000
vt 0.7618 0.2129 0.0000
vt 0.8533 0.2129 0.0000
vt 0.7618 0.2145 0.0000
# 51 texture coords

g Glass1
usemtl _cloner_fixedMaterial__60
s off
f 1/1/1 2/2/1 3/3/1 
f 3/3/1 2/2/1 4/4/1 
f 5/5/2 6/6/2 7/7/2 
f 6/6/2 8/8/2 7/7/2 
f 9/9/3 10/10/3 11/11/3 
f 11/11/4 10/10/4 12/12/4 
f 13/13/5 14/14/5 15/15/5 
f 15/15/6 14/14/6 16/16/6 
f 17/17/7 18/18/7 19/19/7 
f 18/18/7 20/20/7 19/19/7 
f 21/21/8 22/22/8 23/23/8 
f 23/23/9 22/22/9 24/24/9 
f 25/25/10 26/26/10 27/27/10 
f 27/27/11 26/26/11 28/28/11 
f 29/29/12 30/30/12 31/31/12 
f 30/30/12 32/32/12 31/31/12 
f 33/33/13 34/34/13 35/35/13 
f 35/35/13 34/34/13 36/36/13 
f 37/37/14 38/38/14 39/39/14 
f 39/39/15 38/38/15 40/40/15 
f 41/41/16 42/42/16 43/43/16 
f 42/42/16 44/44/16 43/43/16 
f 45/45/17 46/46/17 47/47/17 
f 47/47/17 46/46/17 48/48/17 
f 44/49/18 42/50/18 49/51/18 
# 25 faces

