# 3ds Max Wavefront OBJ Exporter v0.97b - (c)2007 guruware
# File Created: 23.01.2014 16:45:57

mtllib cloner_glass2.mtl

#
# object Glass2
#

v  50.2123 10.7004 -8.9355
v  49.5604 16.2470 -10.5256
v  57.5953 10.7011 -8.9116
v  58.2778 16.2470 -10.5200
v  43.3924 16.2470 -4.3654
v  44.9741 10.7004 -3.6913
v  44.9647 10.7007 3.6886
v  43.3868 16.2470 4.3520
v  50.1700 10.7039 8.8847
v  49.5470 16.2470 10.5200
v  57.5352 10.7042 8.9237
v  58.2644 16.2470 10.5256
v  62.8369 10.7010 3.6348
v  64.4324 16.2470 4.3654
v  62.8062 10.7010 -3.6981
v  64.4380 16.2470 -4.3520
v  58.5025 22.4049 -11.0614
v  49.3365 22.4049 -11.0673
v  42.8510 22.4049 -4.5901
v  42.8451 22.4049 4.5759
v  49.3223 22.4049 11.0614
v  58.4883 22.4049 11.0673
v  64.9738 22.4049 4.5901
v  64.9797 22.4049 -4.5759
v  58.2778 28.5628 -10.5200
v  49.5604 28.5628 -10.5256
v  43.3924 28.5628 -4.3654
v  43.3868 28.5628 4.3520
v  49.5470 28.5628 10.5200
v  58.2644 28.5628 10.5256
v  64.4324 28.5628 4.3654
v  64.4380 28.5628 -4.3520
v  57.6258 34.1179 -8.9489
v  50.2104 34.1179 -8.9536
v  44.9635 34.1179 -3.7134
v  44.9588 34.1179 3.7020
v  50.1990 34.1179 8.9489
v  57.6144 34.1179 8.9536
v  62.8613 34.1179 3.7135
v  62.8660 34.1179 -3.7020
v  56.6104 38.5265 -6.5017
v  51.2227 38.5265 -6.5052
v  47.4107 38.5265 -2.6980
v  47.4072 38.5265 2.6897
v  51.2144 38.5265 6.5017
v  56.6021 38.5265 6.5052
v  60.4141 38.5265 2.6980
v  60.4176 38.5265 -2.6897
# 48 vertices

vn 0.0031 -0.2752 -0.9614
vn 0.0006 -0.2786 -0.9604
vn -0.6799 -0.2764 -0.6792
vn -0.6794 -0.2749 -0.6803
vn -0.9619 -0.2735 -0.0012
vn -0.9616 -0.2743 -0.0006
vn -0.6792 -0.2746 0.6806
vn -0.6799 -0.2767 0.6791
vn -0.0051 -0.2835 0.9590
vn -0.0006 -0.2776 0.9607
vn 0.6768 -0.2852 0.6786
vn 0.6775 -0.2843 0.6784
vn 0.9592 -0.2827 -0.0040
vn 0.9610 -0.2765 0.0006
vn 0.6789 -0.2804 -0.6786
vn 0.6793 -0.2799 -0.6784
vn 0.0006 -0.0876 -0.9962
vn -0.7039 -0.0876 -0.7048
vn -0.9962 -0.0876 -0.0006
vn -0.7048 -0.0876 0.7039
vn -0.0006 -0.0876 0.9962
vn 0.7039 -0.0876 0.7048
vn 0.9962 -0.0876 0.0006
vn 0.7048 -0.0876 -0.7039
vn 0.0006 0.0876 -0.9962
vn -0.7039 0.0876 -0.7048
vn -0.9962 0.0876 -0.0006
vn -0.7048 0.0876 0.7039
vn -0.0006 0.0876 0.9962
vn 0.7039 0.0876 0.7048
vn 0.9962 0.0876 0.0006
vn 0.7048 0.0876 -0.7039
vn 0.0006 0.2722 -0.9622
vn -0.6800 0.2722 -0.6808
vn -0.9622 0.2722 -0.0006
vn -0.6808 0.2722 0.6800
vn -0.0006 0.2722 0.9622
vn 0.6800 0.2722 0.6808
vn 0.9622 0.2722 0.0006
vn 0.6808 0.2722 -0.6800
vn 0.0006 0.4854 -0.8743
vn -0.6178 0.4854 -0.6186
vn -0.8743 0.4854 -0.0006
vn -0.6186 0.4854 0.6178
vn -0.0006 0.4854 0.8743
vn 0.6178 0.4854 0.6186
vn 0.8743 0.4854 0.0006
vn 0.6186 0.4854 -0.6178
# 48 vertex normals

vt 0.4246 0.6377 0.0000
vt 0.4246 0.7024 0.0000
vt 0.3437 0.6377 0.0000
vt 0.3437 0.7024 0.0000
vt 0.4251 0.7017 0.0000
vt 0.3440 0.6368 0.0000
vt 0.4251 0.6368 0.0000
vt 0.3440 0.7017 0.0000
vt 0.4251 0.6374 0.0000
vt 0.4251 0.7020 0.0000
vt 0.3443 0.6374 0.0000
vt 0.3443 0.7020 0.0000
vt 0.3456 0.6385 0.0000
vt 0.4263 0.6385 0.0000
vt 0.3456 0.7030 0.0000
vt 0.4263 0.7030 0.0000
vt 0.3434 0.6383 0.0000
vt 0.4240 0.6383 0.0000
vt 0.3434 0.7028 0.0000
vt 0.4240 0.7028 0.0000
vt 0.3452 0.6375 0.0000
vt 0.4263 0.6375 0.0000
vt 0.3452 0.7024 0.0000
vt 0.4263 0.7024 0.0000
vt 0.4259 0.6362 0.0000
vt 0.4259 0.7015 0.0000
vt 0.3444 0.6362 0.0000
vt 0.3444 0.7015 0.0000
vt 0.4256 0.6368 0.0000
vt 0.4256 0.7017 0.0000
vt 0.3445 0.6368 0.0000
vt 0.3445 0.7017 0.0000
vt 0.3437 0.7671 0.0000
vt 0.4246 0.7671 0.0000
vt 0.3440 0.7665 0.0000
vt 0.4251 0.7665 0.0000
vt 0.3443 0.7666 0.0000
vt 0.4251 0.7666 0.0000
vt 0.3456 0.7675 0.0000
vt 0.4263 0.7675 0.0000
vt 0.3434 0.7673 0.0000
vt 0.4240 0.7673 0.0000
vt 0.3452 0.7672 0.0000
vt 0.4263 0.7672 0.0000
vt 0.3444 0.7667 0.0000
vt 0.4259 0.7667 0.0000
vt 0.3445 0.7666 0.0000
vt 0.4256 0.7666 0.0000
vt 0.3437 0.8318 0.0000
vt 0.4246 0.8318 0.0000
vt 0.3440 0.8314 0.0000
vt 0.4251 0.8314 0.0000
vt 0.3443 0.8312 0.0000
vt 0.4251 0.8312 0.0000
vt 0.3456 0.8321 0.0000
vt 0.4263 0.8321 0.0000
vt 0.3434 0.8319 0.0000
vt 0.4240 0.8319 0.0000
vt 0.3452 0.8320 0.0000
vt 0.4263 0.8320 0.0000
vt 0.3444 0.8319 0.0000
vt 0.4259 0.8319 0.0000
vt 0.3445 0.8314 0.0000
vt 0.4256 0.8314 0.0000
vt 0.3437 0.8965 0.0000
vt 0.4246 0.8965 0.0000
vt 0.3440 0.8963 0.0000
vt 0.4251 0.8963 0.0000
vt 0.3443 0.8958 0.0000
vt 0.4251 0.8958 0.0000
vt 0.3456 0.8966 0.0000
vt 0.4263 0.8966 0.0000
vt 0.3434 0.8964 0.0000
vt 0.4240 0.8964 0.0000
vt 0.3452 0.8968 0.0000
vt 0.4263 0.8968 0.0000
vt 0.3444 0.8971 0.0000
vt 0.4259 0.8971 0.0000
vt 0.3445 0.8963 0.0000
vt 0.4256 0.8963 0.0000
vt 0.3437 0.9612 0.0000
vt 0.4246 0.9612 0.0000
vt 0.3440 0.9611 0.0000
vt 0.4251 0.9611 0.0000
vt 0.3443 0.9604 0.0000
vt 0.4251 0.9604 0.0000
vt 0.3456 0.9612 0.0000
vt 0.4263 0.9612 0.0000
vt 0.3434 0.9609 0.0000
vt 0.4240 0.9609 0.0000
vt 0.3452 0.9616 0.0000
vt 0.4263 0.9616 0.0000
vt 0.3444 0.9623 0.0000
vt 0.4259 0.9623 0.0000
vt 0.3445 0.9612 0.0000
vt 0.4256 0.9612 0.0000
# 96 texture coords

g Glass2
usemtl _cloner_fixedMaterial__60
s off
f 1/1/1 2/2/1 3/3/1 
f 3/3/2 2/2/2 4/4/2 
f 5/5/3 1/6/3 6/7/3 
f 1/6/4 5/5/4 2/8/4 
f 7/9/5 8/10/5 6/11/5 
f 6/11/6 8/10/6 5/12/6 
f 7/13/7 9/14/7 8/15/7 
f 8/15/8 9/14/8 10/16/8 
f 9/17/9 11/18/9 10/19/9 
f 10/19/10 11/18/10 12/20/10 
f 11/21/11 13/22/11 12/23/11 
f 12/23/12 13/22/12 14/24/12 
f 15/25/13 16/26/13 13/27/13 
f 13/27/14 16/26/14 14/28/14 
f 3/29/15 4/30/15 15/31/15 
f 15/31/16 4/30/16 16/32/16 
f 4/4/17 2/2/17 17/33/17 
f 17/33/17 2/2/17 18/34/17 
f 2/8/18 5/5/18 18/35/18 
f 18/35/18 5/5/18 19/36/18 
f 5/12/19 8/10/19 19/37/19 
f 19/37/19 8/10/19 20/38/19 
f 8/15/20 10/16/20 20/39/20 
f 20/39/20 10/16/20 21/40/20 
f 10/19/21 12/20/21 21/41/21 
f 21/41/21 12/20/21 22/42/21 
f 12/23/22 14/24/22 22/43/22 
f 22/43/22 14/24/22 23/44/22 
f 14/28/23 16/26/23 23/45/23 
f 23/45/23 16/26/23 24/46/23 
f 16/32/24 4/30/24 24/47/24 
f 24/47/24 4/30/24 17/48/24 
f 17/33/25 18/34/25 25/49/25 
f 25/49/25 18/34/25 26/50/25 
f 18/35/26 19/36/26 26/51/26 
f 26/51/26 19/36/26 27/52/26 
f 19/37/27 20/38/27 27/53/27 
f 27/53/27 20/38/27 28/54/27 
f 20/39/28 21/40/28 28/55/28 
f 28/55/28 21/40/28 29/56/28 
f 21/41/29 22/42/29 29/57/29 
f 29/57/29 22/42/29 30/58/29 
f 22/43/30 23/44/30 30/59/30 
f 30/59/30 23/44/30 31/60/30 
f 23/45/31 24/46/31 31/61/31 
f 31/61/31 24/46/31 32/62/31 
f 24/47/32 17/48/32 32/63/32 
f 32/63/32 17/48/32 25/64/32 
f 25/49/33 26/50/33 33/65/33 
f 33/65/33 26/50/33 34/66/33 
f 26/51/34 27/52/34 34/67/34 
f 34/67/34 27/52/34 35/68/34 
f 27/53/35 28/54/35 35/69/35 
f 35/69/35 28/54/35 36/70/35 
f 28/55/36 29/56/36 36/71/36 
f 36/71/36 29/56/36 37/72/36 
f 29/57/37 30/58/37 37/73/37 
f 37/73/37 30/58/37 38/74/37 
f 30/59/38 31/60/38 38/75/38 
f 38/75/38 31/60/38 39/76/38 
f 31/61/39 32/62/39 39/77/39 
f 39/77/39 32/62/39 40/78/39 
f 32/63/40 25/64/40 40/79/40 
f 40/79/40 25/64/40 33/80/40 
f 33/65/41 34/66/41 41/81/41 
f 41/81/41 34/66/41 42/82/41 
f 34/67/42 35/68/42 42/83/42 
f 42/83/42 35/68/42 43/84/42 
f 35/69/43 36/70/43 43/85/43 
f 43/85/43 36/70/43 44/86/43 
f 36/71/44 37/72/44 44/87/44 
f 44/87/44 37/72/44 45/88/44 
f 37/73/45 38/74/45 45/89/45 
f 45/89/45 38/74/45 46/90/45 
f 38/75/46 39/76/46 46/91/46 
f 46/91/46 39/76/46 47/92/46 
f 39/77/47 40/78/47 47/93/47 
f 47/93/47 40/78/47 48/94/47 
f 40/79/48 33/80/48 48/95/48 
f 48/95/48 33/80/48 41/96/48 
# 80 faces

