# 3ds Max Wavefront OBJ Exporter v0.97b - (c)2007 guruware
# File Created: 23.01.2014 16:47:05

mtllib cloner_laser.mtl

#
# object Cylinder001
#

v  5.1179 29.5086 -5.0787
v  5.0394 29.4586 -5.1153
v  -1.4690 29.4586 8.8418
v  -1.3905 29.5086 8.8784
v  5.0394 29.3586 -5.1153
v  -1.4690 29.3586 8.8418
v  5.1179 29.3086 -5.0787
v  -1.3905 29.3086 8.8784
v  5.1963 29.3586 -5.0421
v  -1.3120 29.3586 8.9150
v  5.1963 29.4586 -5.0421
v  -1.3120 29.4586 8.9150
v  -5.0834 29.5086 -5.0503
v  -5.1200 29.4586 -4.9718
v  8.8371 29.4586 1.5365
v  8.8737 29.5086 1.4580
v  -5.1200 29.3586 -4.9718
v  8.8371 29.3586 1.5365
v  -5.0834 29.3086 -5.0503
v  8.8737 29.3086 1.4580
v  -5.0468 29.3586 -5.1288
v  8.9103 29.3586 1.3795
v  -5.0468 29.4586 -5.1288
v  8.9103 29.4586 1.3795
v  -5.1386 29.5086 5.1004
v  -5.0601 29.4586 5.1370
v  1.4483 29.4586 -8.8201
v  1.3698 29.5086 -8.8567
v  -5.0601 29.3586 5.1370
v  1.4483 29.3586 -8.8201
v  -5.1386 29.3086 5.1004
v  1.3698 29.3086 -8.8567
v  -5.2170 29.3586 5.0638
v  1.2913 29.3586 -8.8933
v  -5.2170 29.4586 5.0638
v  1.2913 29.4586 -8.8933
v  5.0914 29.5086 5.1330
v  5.1280 29.4586 5.0545
v  -8.8292 29.4586 -1.4538
v  -8.8658 29.5086 -1.3753
v  5.1280 29.3586 5.0545
v  -8.8292 29.3586 -1.4538
v  5.0914 29.3086 5.1330
v  -8.8658 29.3086 -1.3753
v  5.0548 29.3586 5.2115
v  -8.9024 29.3586 -1.2968
v  5.0548 29.4586 5.2115
v  -8.9024 29.4586 -1.2968
# 48 vertices

vn -0.4532 0.8660 -0.2113
vn -0.4531 0.8660 -0.2113
vn -0.9063 0.0000 -0.4226
vn -0.4532 -0.8660 -0.2113
vn -0.4531 -0.8660 -0.2113
vn 0.4532 -0.8660 0.2113
vn 0.4531 -0.8660 0.2113
vn 0.9063 -0.0000 0.4226
vn 0.4532 0.8660 0.2113
vn 0.4531 0.8660 0.2113
vn -0.2113 0.8660 0.4531
vn -0.4226 0.0000 0.9063
vn -0.2113 -0.8660 0.4531
vn -0.2113 -0.8660 0.4532
vn 0.2113 -0.8660 -0.4531
vn 0.4226 0.0000 -0.9063
vn 0.2113 0.8660 -0.4531
vn 0.2113 0.8660 -0.4532
vn 0.9063 0.0000 0.4226
vn 0.2113 -0.8660 -0.4532
# 20 vertex normals

vt 0.9559 0.9428 0.0000
vt 0.9559 0.9423 0.0000
vt 0.8747 0.9359 0.0000
vt 0.8746 0.9364 0.0000
vt 0.9559 0.9420 0.0000
vt 0.8747 0.9356 0.0000
vt 0.8746 0.9359 0.0000
vt 0.9558 0.9429 0.0000
vt 0.9558 0.9431 0.0000
vt 0.8746 0.9367 0.0000
vt 0.9373 0.8972 0.0000
vt 0.9368 0.8971 0.0000
vt 0.9297 0.9701 0.0000
vt 0.9302 0.9702 0.0000
vt 0.9368 0.8968 0.0000
vt 0.9297 0.9698 0.0000
vt 0.9373 0.8967 0.0000
vt 0.9302 0.9698 0.0000
vt 0.9377 0.8969 0.0000
vt 0.9306 0.9699 0.0000
vt 0.9377 0.8971 0.0000
vt 0.9306 0.9701 0.0000
vt 0.8867 0.9135 0.0000
vt 0.8866 0.9138 0.0000
vt 0.9679 0.9202 0.0000
vt 0.9679 0.9199 0.0000
vt 0.8866 0.9135 0.0000
vt 0.8867 0.9130 0.0000
vt 0.9679 0.9194 0.0000
vt 0.8867 0.9127 0.0000
vt 0.9679 0.9191 0.0000
vt 0.8867 0.9129 0.0000
vt 0.9050 0.9593 0.0000
vt 0.9055 0.9592 0.0000
vt 0.9126 0.8862 0.0000
vt 0.9121 0.8863 0.0000
vt 0.9055 0.9590 0.0000
vt 0.9126 0.8860 0.0000
vt 0.9050 0.9588 0.0000
vt 0.9121 0.8858 0.0000
vt 0.9046 0.9589 0.0000
vt 0.9117 0.8859 0.0000
vt 0.9046 0.9591 0.0000
vt 0.9117 0.8861 0.0000
# 44 texture coords

g Cylinder001
usemtl _cloner_fixedMaterial__60
s off
f 1/1/1 2/2/1 3/3/1 
f 3/3/2 4/4/2 1/1/2 
f 2/2/3 5/5/3 6/6/3 
f 6/6/3 3/3/3 2/2/3 
f 5/5/4 7/2/4 8/7/4 
f 8/7/5 6/6/5 5/5/5 
f 7/2/6 9/8/6 10/4/6 
f 10/4/7 8/7/7 7/2/7 
f 9/8/8 11/9/8 12/10/8 
f 12/10/8 10/4/8 9/8/8 
f 11/9/9 1/1/9 4/4/9 
f 4/4/10 12/10/10 11/9/10 
f 13/11/11 14/12/11 15/13/11 
f 15/13/11 16/14/11 13/11/11 
f 14/12/12 17/15/12 18/16/12 
f 18/16/12 15/13/12 14/12/12 
f 17/15/13 19/17/13 20/18/13 
f 20/18/14 18/16/14 17/15/14 
f 19/17/15 21/19/15 22/20/15 
f 22/20/15 20/18/15 19/17/15 
f 21/19/16 23/21/16 24/22/16 
f 24/22/16 22/20/16 21/19/16 
f 23/21/17 13/11/17 16/14/17 
f 16/14/18 24/22/18 23/21/18 
f 25/23/9 26/24/9 27/25/9 
f 27/25/9 28/26/9 25/23/9 
f 26/24/19 29/27/19 30/26/19 
f 30/26/19 27/25/19 26/24/19 
f 29/27/7 31/28/7 32/29/7 
f 32/29/6 30/26/6 29/27/6 
f 31/28/5 33/30/5 34/31/5 
f 34/31/4 32/29/4 31/28/4 
f 33/30/3 35/32/3 36/29/3 
f 36/29/3 34/31/3 33/30/3 
f 35/32/1 25/23/1 28/26/1 
f 28/26/1 36/29/1 35/32/1 
f 37/33/18 38/34/18 39/35/18 
f 39/35/18 40/36/18 37/33/18 
f 38/34/16 41/37/16 42/38/16 
f 42/38/16 39/35/16 38/34/16 
f 41/37/20 43/39/20 44/40/20 
f 44/40/20 42/38/20 41/37/20 
f 43/39/14 45/41/14 46/42/14 
f 46/42/13 44/40/13 43/39/13 
f 45/41/12 47/43/12 48/44/12 
f 48/44/12 46/42/12 45/41/12 
f 47/43/11 37/33/11 40/36/11 
f 40/36/11 48/44/11 47/43/11 
# 48 faces

