# This file uses centimeters as units for non-parametric coordinates.

mtllib 1.mtl
g default
v 4.534187 9.254463 2.484727
v 5.731369 8.124001 0.218420
v 6.044636 5.425974 0.677536
v 5.079991 4.832203 3.162757
v 5.794989 4.165142 -0.681129
v 4.037955 3.171797 3.535699
v -4.544699 2.788175 -2.480897
v -5.718884 3.896923 -0.258124
v -5.205571 3.243529 1.535178
v 2.863756 1.197826 -2.485247
v 4.414304 1.764533 -0.213025
v 3.680382 1.436119 1.554407
v -3.262249 1.375612 -2.271950
v -1.024077 1.375612 -3.799261
v 0.127700 1.436119 3.978736
v -1.906094 1.823814 3.986301
v -3.389811 1.281531 1.812008
v 1.125938 0.449755 -2.199601
v 1.263712 0.363413 1.828211
v -2.570413 0.465761 0.269745
v 0.159140 -0.096558 0.269745
v 4.203167 7.647674 3.952059
v 5.666350 4.314080 -1.127133
v -4.463240 3.183581 -2.841984
v 3.145983 2.567802 -3.736318
v -0.803470 2.073045 -4.503848
v 5.833568 7.243809 0.368200
v 5.225556 6.436044 2.124459
v -5.346675 3.545457 -0.962728
v -4.987047 3.007406 1.568494
v 5.590412 3.809441 -0.611770
v 3.807905 2.055124 2.261007
v 0.704923 2.020445 4.334003
v 3.966171 1.564003 0.866170
v 4.297936 8.107686 3.531972
v -1.812543 2.379242 -4.045638
v 4.500461 7.295353 3.420625
v 4.841811 5.926204 3.232959
v 4.281925 2.521648 1.497052
v -3.911307 2.090522 -2.377699
v -4.632256 2.624040 1.622586
v -4.365484 3.201151 2.448999
v -2.996429 2.738486 -3.508048
v -2.381074 3.173556 -4.270585
v 5.271558 9.803656 2.893208
v 5.015766 8.460436 4.116759
v -6.670373 3.557595 -0.299087
v -6.079873 2.788093 1.791300
v -6.237248 3.148608 -1.119008
v 6.681569 8.483683 0.246531
v 7.047551 5.331645 0.782904
v 5.941593 4.627842 3.687479
v 6.760820 3.859333 -0.794651
v 4.722657 2.685561 4.123733
v -5.302149 2.252871 -2.894380
v 3.341048 0.397464 -2.899455
v 5.150021 1.058622 -0.248529
v 4.293779 0.675472 1.813475
v -3.805957 0.604881 -2.650608
v -1.194757 0.604881 -4.432471
v 0.165413 0.665012 4.654411
v -2.216192 1.119010 4.663270
v -3.953647 0.483989 2.117138
v 1.313594 -0.475286 -2.566201
v 1.474330 -0.576018 2.132913
v -2.998815 -0.456612 0.314702
v 0.185664 -1.112651 0.314702
v 4.915917 7.921275 4.610775
v 6.605609 4.032647 -1.325445
v -5.207113 2.714178 -3.315648
v 3.670313 1.995770 -4.359037
v -0.937382 1.418552 -5.254489
v 6.800965 7.455377 0.421515
v 6.096483 6.508718 2.478536
v -5.824036 2.505014 1.831980
v 6.522147 3.444348 -0.713731
v 4.453554 1.379318 2.632645
v 0.842044 1.340052 5.071045
v 4.627200 0.824670 1.010532
v -2.114633 1.775783 -4.719911
v 5.263680 7.509143 3.989122
v 5.662978 5.907563 3.769598
v 4.995580 1.941922 1.746561
v -4.563192 1.438943 -2.773983
v -5.408569 2.056087 1.895322
v -5.096176 2.731893 2.863066
v -3.495834 2.194901 -4.092723
v -2.777921 2.702482 -4.982348
v -5.317976 2.248222 -2.890678
v -6.254472 3.132528 -1.117857
v -5.222853 2.709952 -3.312333
v 3.662717 1.990884 -4.356678
v 6.605842 4.030077 -1.309838
v -0.949205 1.413137 -5.252952
v -2.127536 1.770696 -4.717885
v -6.689113 3.542947 -0.295065
v -3.510004 2.190198 -4.090120
v -2.791431 2.698245 -4.980563
vt 0.481650 0.669035
vt 0.469294 0.598923
vt 0.443775 0.454122
vt 0.592651 0.365554
vt 0.232966 0.493968
vt 0.217484 0.603028
vt 0.173644 0.631093
vt 0.555858 0.353690
vt 0.550137 0.325356
vt 0.238757 0.406825
vt 0.376169 0.222777
vt 0.142135 0.182853
vt 0.704689 0.117327
vt 0.681124 0.057739
vt 0.813088 0.131489
vt 0.871213 0.187043
vt 0.807896 0.226453
vt 0.207991 0.274565
vt 0.313147 0.185615
vt 0.138083 0.268109
vt 0.202998 0.232438
vt 0.259701 0.268931
vt 0.517242 0.162468
vt 0.428214 0.146495
vt 0.477416 0.014222
vt 0.171443 0.136308
vt 0.348850 0.050861
vt 0.208299 0.667735
vt 0.632331 0.273846
vt 0.635168 0.254486
vt 0.710126 0.270371
vt 0.308228 0.120700
vt 0.324411 0.534580
vt 0.524604 0.046103
vt 0.294691 0.759082
vt 0.655898 0.112986
vt 0.639772 0.223055
vt 0.371438 0.136308
vt 0.299225 0.179313
vt 0.178207 0.120700
vt 0.314387 0.044791
vt 0.524604 -0.000000
vt 0.840353 0.125660
vt 0.840997 0.157447
vt 0.657277 0.037712
vt 0.419683 0.298600
vt 0.479666 0.327416
vt 0.290440 0.236512
vt 0.157233 0.202985
vt 0.118225 0.177880
vt 0.015377 0.911098
vt 0.096782 0.911098
vt 0.096782 0.992503
vt 0.015377 0.992503
vt 0.009259 0.897384
vt 0.107641 0.897384
vt 0.107641 0.995766
vt 0.009259 0.995766
vt 0.481650 0.669035
vt 0.469294 0.598923
vt 0.443775 0.454122
vt 0.592651 0.365554
vt 0.232966 0.493968
vt 0.217484 0.603028
vt 0.173644 0.631093
vt 0.555858 0.353690
vt 0.550137 0.325356
vt 0.238757 0.406825
vt 0.376169 0.222777
vt 0.138083 0.268109
vt 0.202998 0.232438
vt 0.259701 0.268931
vt 0.142135 0.182853
vt 0.632331 0.273846
vt 0.635168 0.254486
vt 0.710126 0.270371
vt 0.704689 0.117327
vt 0.681124 0.057739
vt 0.813088 0.131489
vt 0.871213 0.187043
vt 0.807896 0.226453
vt 0.207991 0.274565
vt 0.313147 0.185615
vt 0.308228 0.120700
vt 0.524604 0.046103
vt 0.655898 0.112986
vt 0.639772 0.223055
vt 0.299225 0.179313
vt 0.517242 0.162468
vt 0.428214 0.146495
vt 0.178207 0.120700
vt 0.314387 0.044791
vt 0.524604 -0.000000
vt 0.840353 0.125660
vt 0.840997 0.157447
vt 0.657277 0.037712
vt 0.208299 0.667735
vt 0.290440 0.236512
vt 0.324411 0.534580
vt 0.294691 0.759082
vt 0.419683 0.298600
vt 0.479666 0.327416
vt 0.171443 0.136308
vt 0.348850 0.050861
vt 0.371438 0.136308
vt 0.157233 0.202985
vt 0.118225 0.177880
vt 0.477416 0.014222
vt 0.009405 0.901066
vt 0.103382 0.901066
vt 0.103382 0.995042
vt 0.009405 0.995042
vt 0.009405 0.901066
vt 0.103382 0.901066
vt 0.103382 0.995042
vt 0.009405 0.995042
vt 0.009405 0.901066
vt 0.103382 0.901066
vt 0.103382 0.995042
vt 0.009405 0.995042
vt 0.009405 0.901066
vt 0.103382 0.901066
vt 0.103382 0.995042
vt 0.009405 0.995042
vt 0.009797 0.903737
vt 0.100413 0.903737
vt 0.100413 0.994353
vt 0.009797 0.994353
vt 0.009797 0.903737
vt 0.100413 0.903737
vt 0.100413 0.994353
vt 0.009797 0.994353
vt 0.009797 0.903737
vt 0.100413 0.903737
vt 0.100413 0.994353
vt 0.009797 0.994353
vt 0.009797 0.903737
vt 0.100413 0.903737
vt 0.100413 0.994353
vt 0.009797 0.994353
vt 0.009797 0.903737
vt 0.100413 0.903737
vt 0.100413 0.994353
vt 0.009797 0.994353
vt 0.009797 0.903737
vt 0.100413 0.903737
vt 0.100413 0.994353
vt 0.009797 0.994353
vt 0.009797 0.903737
vt 0.100413 0.903737
vt 0.100413 0.994353
vt 0.009797 0.994353
vt 0.012573 0.903483
vt 0.102872 0.903483
vt 0.102872 0.993781
vt 0.012573 0.993781
vt 0.012573 0.903483
vt 0.102872 0.903483
vt 0.102872 0.993781
vt 0.012573 0.993781
vt 0.012573 0.903483
vt 0.102872 0.903483
vt 0.102872 0.993781
vt 0.012573 0.993781
vt 0.012573 0.903483
vt 0.102872 0.903483
vt 0.102872 0.993781
vt 0.012573 0.993781
vt 0.012573 0.903483
vt 0.102872 0.903483
vt 0.102872 0.993781
vt 0.012573 0.993781
vt 0.012573 0.903483
vt 0.102872 0.903483
vt 0.102872 0.993781
vt 0.012573 0.993781
vt 0.012573 0.903483
vt 0.102872 0.903483
vt 0.102872 0.993781
vt 0.012573 0.993781
vt 0.012573 0.903483
vt 0.102872 0.903483
vt 0.102872 0.993781
vt 0.012573 0.993781
vt 0.012573 0.903483
vt 0.102872 0.903483
vt 0.102872 0.993781
vt 0.012573 0.993781
vt 0.012573 0.903483
vt 0.102872 0.903483
vt 0.102872 0.993781
vt 0.012573 0.993781
vt 0.012573 0.903483
vt 0.102872 0.903483
vt 0.102872 0.993781
vt 0.012573 0.993781
vt 0.012573 0.903483
vt 0.102872 0.903483
vt 0.102872 0.993781
vt 0.012573 0.993781
vt 0.012573 0.903483
vt 0.102872 0.903483
vt 0.102872 0.993781
vt 0.012573 0.993781
vt 0.012573 0.903483
vt 0.102872 0.903483
vt 0.102872 0.993781
vt 0.012573 0.993781
vt 0.012573 0.903483
vt 0.102872 0.903483
vt 0.102872 0.993781
vt 0.012573 0.993781
vt 0.012573 0.903483
vt 0.102872 0.903483
vt 0.102872 0.993781
vt 0.012573 0.993781
vn -0.762436 0.514918 0.391857
vn -0.762436 0.514917 0.391858
vn -0.762436 0.514917 0.391857
vn -0.856006 0.462367 -0.231239
vn -0.858576 0.453653 -0.238846
vn -0.855247 0.455347 -0.247410
vn -0.856873 0.445596 -0.259255
vn -0.858921 0.444366 -0.254546
vn -0.220920 0.682099 0.697091
vn -0.202835 0.705167 0.679409
vn -0.212267 0.694998 0.686964
vn -0.196936 0.716249 0.669481
vn -0.180262 0.726700 0.662882
vn 0.730773 0.681371 0.041285
vn 0.733893 0.678110 0.039588
vn 0.735774 0.675987 0.040960
vn 0.739591 0.671994 0.037816
vn 0.736727 0.674941 0.041076
vn -0.400695 0.915401 0.038517
vn -0.396513 0.917607 0.027839
vn -0.389772 0.920496 0.027638
vn -0.368517 0.929413 0.019672
vn 0.193492 0.939234 0.283550
vn 0.193493 0.939234 0.283550
vn 0.193493 0.939234 0.283550
vn 0.193493 0.939234 0.283550
vn 0.193493 0.939234 0.283550
vn 0.173032 0.914820 -0.364918
vn 0.179688 0.909747 -0.374262
vn 0.180913 0.917210 -0.354960
vn 0.182444 0.912815 -0.365353
vn 0.180216 0.902326 -0.391573
vn 0.186635 0.905947 -0.380036
vn -0.964549 -0.080014 0.251481
vn -0.964549 -0.080014 0.251481
vn -0.964549 -0.080014 0.251481
vn -0.903876 -0.171635 -0.391855
vn -0.903874 -0.171635 -0.391858
vn -0.903875 -0.171634 -0.391857
vn 0.477811 0.536673 0.695471
vn 0.478335 0.536880 0.694951
vn 0.478374 0.536764 0.695013
vn 0.478419 0.537100 0.694722
vn -0.903876 -0.171635 -0.391854
vn -0.903876 -0.171642 -0.391851
vn -0.903876 -0.171635 -0.391855
vn -0.903876 -0.171641 -0.391852
vn -0.903875 -0.171631 -0.391857
vn 0.727140 0.685182 0.042336
vn 0.727212 0.685110 0.042273
vn 0.729243 0.682942 0.042370
vn 0.730598 0.681679 0.039246
vn -0.762436 0.514916 0.391858
vn -0.762436 0.514917 0.391858
vn -0.762436 0.514917 0.391857
vn -0.856613 0.443972 -0.262874
vn -0.848693 0.456159 -0.267657
vn -0.386986 0.727075 -0.567101
vn -0.386985 0.727077 -0.567100
vn -0.386986 0.727075 -0.567101
vn -0.386985 0.727076 -0.567100
vn -0.386984 0.727078 -0.567098
vn -0.852737 0.459409 -0.248561
vn -0.845091 0.471731 -0.251575
vn -0.404851 0.913590 0.038067
vn -0.401358 0.915891 0.007405
vn -0.404091 0.914571 0.016472
vn -0.903874 -0.171638 -0.391858
vn -0.903875 -0.171634 -0.391858
vn 0.474612 0.542933 0.692797
vn 0.478139 0.544755 0.688930
vn 0.475716 0.540983 0.693565
vn -0.850581 0.457666 -0.258947
vn 0.478377 0.538781 0.693448
vn 0.734014 0.677795 0.042628
vn 0.476656 0.538870 0.694563
vn 0.642850 0.514918 -0.567101
vn 0.642850 0.514918 -0.567101
vn 0.642850 0.514918 -0.567101
vn -0.668425 0.571934 0.475499
vn -0.672811 0.567494 0.474633
vn -0.676535 0.563684 0.473879
vn -0.679620 0.560500 0.473240
vn -0.326427 0.854217 0.404672
vn -0.323350 0.854943 0.405607
vn -0.325071 0.854538 0.405085
vn -0.322446 0.855155 0.405881
vn 0.762750 -0.514963 -0.391185
vn 0.762444 -0.515075 -0.391634
vn 0.762419 -0.515088 -0.391666
vn 0.857223 -0.463721 0.223901
vn 0.856547 -0.455186 0.243173
vn 0.859663 -0.453520 0.235159
vn 0.857250 -0.444133 0.260516
vn 0.858422 -0.443437 0.257829
vn 0.220920 -0.682099 -0.697091
vn 0.212267 -0.694998 -0.686964
vn 0.202835 -0.705167 -0.679409
vn 0.196936 -0.716248 -0.669481
vn 0.180261 -0.726701 -0.662882
vn -0.730630 -0.681439 -0.042670
vn -0.735325 -0.676395 -0.042260
vn -0.733180 -0.678788 -0.041157
vn -0.738031 -0.673604 -0.039594
vn -0.736727 -0.674942 -0.041076
vn 0.368517 -0.929413 -0.019672
vn 0.396513 -0.917607 -0.027839
vn 0.389772 -0.920496 -0.027638
vn 0.400695 -0.915401 -0.038517
vn -0.193493 -0.939234 -0.283550
vn -0.193493 -0.939234 -0.283550
vn -0.193493 -0.939234 -0.283550
vn -0.193493 -0.939234 -0.283550
vn -0.193493 -0.939234 -0.283550
vn -0.173331 -0.916311 0.361013
vn -0.179330 -0.918099 0.353460
vn -0.178077 -0.910695 0.372725
vn -0.180933 -0.913834 0.363553
vn -0.178632 -0.903336 0.389967
vn -0.187069 -0.908050 0.374767
vn 0.963469 0.084629 -0.254098
vn 0.963469 0.084629 -0.254098
vn 0.963469 0.084629 -0.254098
vn 0.904769 0.184270 0.383977
vn 0.906423 0.178601 0.382751
vn 0.902960 0.183160 0.388735
vn -0.478419 -0.537100 -0.694722
vn -0.478335 -0.536880 -0.694951
vn -0.478374 -0.536764 -0.695013
vn -0.477810 -0.536673 -0.695471
vn 0.906589 0.172958 0.384943
vn 0.905779 0.173811 0.386464
vn 0.905005 0.175287 0.387609
vn 0.905353 0.172555 0.388022
vn 0.903682 0.174423 0.391071
vn -0.733687 -0.677987 -0.045130
vn -0.731871 -0.680012 -0.044151
vn -0.730865 -0.680964 -0.046086
vn -0.738529 -0.673084 -0.039149
vn 0.762380 -0.514956 -0.391915
vn 0.762398 -0.514955 -0.391881
vn 0.762436 -0.514917 -0.391857
vn 0.856613 -0.443972 0.262874
vn 0.848692 -0.456159 0.267657
vn 0.384330 -0.735948 0.557379
vn 0.386576 -0.733362 0.559231
vn 0.386418 -0.733247 0.559490
vn 0.387436 -0.732080 0.560315
vn 0.388074 -0.731027 0.561247
vn 0.846588 -0.472504 0.245008
vn 0.858788 -0.454273 0.236895
vn 0.404851 -0.913590 -0.038067
vn 0.401358 -0.915891 -0.007405
vn 0.404091 -0.914571 -0.016472
vn 0.902440 0.171997 0.394992
vn 0.904348 0.177475 0.388147
vn -0.474612 -0.542933 -0.692797
vn -0.475716 -0.540983 -0.693565
vn -0.478139 -0.544755 -0.688930
vn 0.852302 -0.459056 0.250696
vn -0.478377 -0.538781 -0.693448
vn -0.735639 -0.675923 -0.044312
vn -0.476656 -0.538870 -0.694563
vn -0.642850 -0.514918 0.567101
vn -0.642850 -0.514918 0.567101
vn -0.642850 -0.514918 0.567101
vn -0.285819 0.788648 -0.544372
vn -0.285015 0.788918 -0.544403
vn -0.283255 0.789506 -0.544469
vn -0.282803 0.789657 -0.544486
vn 0.088564 -0.157094 -0.983604
vn 0.088564 -0.157094 -0.983604
vn 0.088564 -0.157094 -0.983604
vn 0.088564 -0.157095 -0.983605
vn 0.134877 0.830724 -0.540098
vn 0.134877 0.830723 -0.540099
vn 0.134877 0.830724 -0.540098
vn 0.134878 0.830723 -0.540099
vn 0.088564 -0.157094 -0.983604
vn 0.088564 -0.157094 -0.983605
vn 0.088564 -0.157094 -0.983604
vn 0.088564 -0.157094 -0.983605
vn -0.393265 0.429409 0.812988
vn -0.393265 0.429409 0.812988
vn -0.393265 0.429410 0.812988
vn -0.393265 0.429410 0.812988
vn -0.744261 -0.430022 0.511035
vn -0.744261 -0.430022 0.511034
vn -0.744261 -0.430022 0.511034
vn -0.744261 -0.430022 0.511034
vn -0.668423 0.571933 0.475503
vn -0.667244 0.569934 0.479542
vn -0.666594 0.568837 0.481744
vn -0.665722 0.567372 0.484668
vn 0.383999 0.712956 0.586719
vn 0.385895 0.710743 0.588157
vn 0.392192 0.703307 0.592911
vn 0.393192 0.702114 0.593663
vn -0.129469 -0.858281 0.496580
vn -0.129469 -0.858280 0.496581
vn -0.129469 -0.858281 0.496581
vn -0.129469 -0.858280 0.496582
vn -0.534374 -0.244145 0.809221
vn -0.534374 -0.244146 0.809220
vn -0.534374 -0.244145 0.809220
vn -0.534374 -0.244146 0.809220
vn -0.541730 -0.170756 0.823026
vn -0.541730 -0.170756 0.823026
vn -0.541730 -0.170756 0.823026
vn -0.541730 -0.170756 0.823025
vn 0.128033 0.657144 0.742812
vn 0.128033 0.657144 0.742812
vn 0.128033 0.657144 0.742812
vn 0.128033 0.657144 0.742812
vn -0.743610 0.416622 0.522944
vn -0.742555 0.419090 0.522471
vn -0.742488 0.419246 0.522441
vn -0.741654 0.421185 0.522067
vn 0.141103 0.265167 0.953822
vn 0.141183 0.265102 0.953828
vn 0.141381 0.264942 0.953844
vn 0.141434 0.264898 0.953848
vn -0.708101 0.625761 0.327132
vn -0.708101 0.625761 0.327132
vn -0.708101 0.625762 0.327132
vn -0.708101 0.625762 0.327132
vn -0.475370 0.867818 0.144618
vn -0.475370 0.867818 0.144618
vn -0.475370 0.867818 0.144618
vn -0.475371 0.867818 0.144618
vn 0.141103 0.265166 0.953822
vn 0.141103 0.265166 0.953822
vn 0.141103 0.265166 0.953822
vn 0.141103 0.265166 0.953822
vn 0.629605 -0.717553 0.297850
vn 0.629605 -0.717553 0.297850
vn 0.629605 -0.717553 0.297850
vn 0.629605 -0.717553 0.297850
vn -0.270186 0.796948 -0.540253
vn -0.270186 0.796948 -0.540254
vn -0.270186 0.796948 -0.540254
vn -0.270186 0.796948 -0.540254
vn -0.658751 0.576823 0.483035
vn -0.658750 0.576823 0.483035
vn -0.658750 0.576823 0.483035
vn -0.658750 0.576823 0.483035
vn 0.111942 0.772457 -0.625123
vn 0.111941 0.772458 -0.625122
vn 0.111942 0.772457 -0.625123
vn 0.111941 0.772458 -0.625122
vn -0.067006 0.755112 -0.652162
vn -0.067006 0.755112 -0.652163
vn -0.067006 0.755112 -0.652163
vn -0.067006 0.755111 -0.652163
vn 0.035628 0.746443 -0.664495
vn 0.035628 0.746443 -0.664495
vn 0.035628 0.746443 -0.664495
vn 0.035628 0.746443 -0.664495
vn -0.270185 0.796948 -0.540254
vn -0.270186 0.796947 -0.540254
vn -0.270186 0.796947 -0.540254
vn -0.270186 0.796947 -0.540254
vn -0.067007 0.755112 -0.652163
vn -0.067007 0.755112 -0.652163
vn -0.067007 0.755111 -0.652163
vn -0.067007 0.755111 -0.652164
vn 0.706204 0.327737 -0.627586
vn 0.706204 0.327737 -0.627586
vn 0.706204 0.327737 -0.627586
vn 0.706204 0.327737 -0.627586
vn -0.662812 0.740286 -0.112505
vn -0.662812 0.740285 -0.112505
vn -0.662812 0.740285 -0.112505
vn -0.662813 0.740285 -0.112505
s 1
g pSolid4
usemtl anisotropic3SG
f 5/8/1 23/4/2 31/9/3
s 2
f 4/10/4 3/3/5 39/11/6
f 39/11/6 3/3/5 31/9/7
f 3/3/5 5/8/8 31/9/7
s 3
f 25/17/9 26/16/10 10/13/11
f 10/13/11 26/16/10 18/14/12
f 26/16/10 14/15/13 18/14/12
s 4
f 41/37/14 17/36/15 40/39/16
f 17/36/15 20/34/17 40/39/16
f 13/32/18 40/39/16 20/34/17
s 5
f 18/14/19 34/24/20 10/13/21
f 10/13/21 34/24/20 11/23/22
s 6
f 13/32/23 20/34/24 14/40/25
f 14/40/25 20/34/24 18/41/26
f 20/34/24 21/42/27 18/41/26
s 7
f 15/43/28 19/45/29 16/44/30
f 16/44/30 19/45/29 17/36/31
f 19/45/29 21/42/32 17/36/31
f 21/42/32 20/34/33 17/36/31
s off
f 23/4/34 5/8/35 3/3/36
s 8
f 22/7/37 35/28/38 37/6/39
s 9
f 7/48/40 40/39/41 24/22/42
f 24/22/42 40/39/41 43/21/43
s 8
f 3/3/44 4/10/45 28/33/46
f 28/33/46 4/10/45 38/5/47
f 27/2/48 3/3/44 28/33/46
s 4
f 29/46/49 8/47/50 30/30/51
f 30/30/51 8/47/50 9/29/52
s 1
f 25/17/53 10/13/54 23/4/2
f 23/4/2 10/13/54 31/9/3
f 10/13/54 11/23/55 31/9/3
s 2
f 31/9/7 11/23/56 39/11/6
f 39/11/6 11/23/56 34/24/57
s 12
f 32/19/58 12/38/59 33/12/60
f 33/12/60 12/38/59 15/26/61
f 12/38/59 19/27/62 15/26/61
s 8
f 37/6/39 28/33/46 38/5/47
s 2
f 32/19/63 6/18/64 39/11/6
f 39/11/6 6/18/64 4/10/4
s 5
f 18/14/19 21/25/65 34/24/20
f 34/24/20 21/25/65 12/38/66
f 21/25/65 19/27/67 12/38/66
s 8
f 1/35/68 2/1/69 35/28/38
f 35/28/38 2/1/69 37/6/39
f 37/6/39 2/1/69 28/33/46
f 2/1/69 27/2/48 28/33/46
s 9
f 14/40/70 26/50/71 36/49/72
s 2
f 34/24/57 12/38/73 39/11/6
f 39/11/6 12/38/73 32/19/63
s 9
f 43/21/43 36/49/72 44/20/74
s 4
f 40/39/16 7/48/75 41/37/14
f 41/37/14 7/48/75 30/30/51
f 7/48/75 29/46/49 30/30/51
s 9
f 14/40/70 36/49/72 13/32/76
f 36/49/72 43/21/43 13/32/76
f 40/39/41 13/32/76 43/21/43
s off
f 41/37/77 30/30/78 42/31/79
s 15
f 35/52/80 46/53/81 1/51/82
f 1/51/82 46/53/81 45/54/83
s 16
f 9/55/84 8/56/85 48/58/86
f 48/58/86 8/56/85 47/57/87
s 17
f 53/66/88 76/67/89 69/62/90
s 18
f 52/68/91 83/69/92 51/61/93
f 83/69/92 76/67/94 51/61/93
f 51/61/93 76/67/94 53/66/95
s 19
f 71/81/96 56/77/97 72/80/98
f 56/77/97 64/78/99 72/80/98
f 64/78/99 60/79/100 72/80/98
s 20
f 85/87/101 84/88/102 63/86/103
f 63/86/103 84/88/102 66/85/104
f 59/84/105 66/85/104 84/88/102
s 21
f 57/89/106 79/90/107 56/77/108
f 56/77/108 79/90/107 64/78/109
s 22
f 59/84/110 60/91/111 66/85/112
f 60/91/111 64/92/113 66/85/112
f 64/92/113 67/93/114 66/85/112
s 23
f 61/94/115 62/95/116 65/96/117
f 62/95/116 63/86/118 65/96/117
f 65/96/117 63/86/118 67/93/119
f 63/86/118 66/85/120 67/93/119
s off
f 69/62/121 51/61/122 53/66/123
s 24
f 68/65/124 81/64/125 46/97/126
s 25
f 87/71/127 84/88/128 70/72/129
f 70/72/129 84/88/128 55/98/130
s 24
f 82/63/131 52/68/132 74/99/133
f 74/99/133 52/68/132 51/61/134
f 73/60/135 74/99/133 51/61/134
s 20
f 49/101/136 75/75/137 47/102/138
f 47/102/138 75/75/137 48/74/139
s 17
f 71/81/140 69/62/90 56/77/141
f 69/62/90 76/67/89 56/77/141
f 76/67/89 57/89/142 56/77/141
s 18
f 76/67/94 83/69/92 57/89/143
f 57/89/143 83/69/92 79/90/144
s 28
f 77/83/145 78/73/146 58/105/147
f 78/73/146 61/103/148 58/105/147
f 61/103/148 65/104/149 58/105/147
s 24
f 81/64/125 82/63/131 74/99/133
s 18
f 52/68/91 54/82/150 83/69/92
f 83/69/92 54/82/150 77/83/151
s 21
f 64/78/109 79/90/107 67/108/152
f 79/90/107 58/105/153 67/108/152
f 58/105/153 65/104/154 67/108/152
s 24
f 50/59/155 45/100/156 73/60/135
f 73/60/135 45/100/156 74/99/133
f 74/99/133 45/100/156 81/64/125
f 46/97/126 81/64/125 45/100/156
s 25
f 60/91/157 80/106/158 72/107/159
s 18
f 79/90/144 83/69/92 58/105/160
f 58/105/160 83/69/92 77/83/151
s 25
f 87/71/127 88/70/161 80/106/158
s 20
f 84/88/102 85/87/101 55/98/162
f 85/87/101 75/75/137 55/98/162
f 75/75/137 49/101/136 55/98/162
s 25
f 60/91/157 59/84/163 80/106/158
f 80/106/158 59/84/163 87/71/127
f 84/88/128 87/71/127 59/84/163
s off
f 85/87/164 86/76/165 75/75/166
s 31
f 1/110/167 45/111/168 2/109/169
f 2/109/169 45/111/168 50/112/170
s 32
f 27/113/171 2/114/172 73/116/173
f 73/116/173 2/114/172 50/115/174
s 33
f 23/117/175 3/118/176 69/120/177
f 69/120/177 3/118/176 51/119/178
s 34
f 27/122/179 73/123/180 3/121/181
f 3/121/181 73/123/180 51/124/182
s 35
f 6/126/183 54/127/184 4/125/185
f 4/125/185 54/127/184 52/128/186
s 36
f 32/130/187 77/131/188 6/129/189
f 6/129/189 77/131/188 54/132/190
s 37
f 35/133/191 22/134/192 46/136/193
f 46/136/193 22/134/192 68/135/194
s 38
f 33/138/195 78/139/196 32/137/197
f 32/137/197 78/139/196 77/140/198
s 39
f 37/142/199 81/143/200 22/141/201
f 22/141/201 81/143/200 68/144/202
s 40
f 37/145/203 38/146/204 81/148/205
f 81/148/205 38/146/204 82/147/206
s 41
f 38/149/207 4/150/208 82/152/209
f 82/152/209 4/150/208 52/151/210
s 42
f 16/154/211 62/155/212 15/153/213
f 15/153/213 62/155/212 61/156/214
s 43
f 33/157/215 15/158/216 78/160/217
f 78/160/217 15/158/216 61/159/218
s 44
f 30/161/219 9/162/220 75/164/221
f 75/164/221 9/162/220 48/163/222
s 45
f 17/166/223 63/167/224 16/165/225
f 16/165/225 63/167/224 62/168/226
s 46
f 42/169/227 30/170/228 86/172/229
f 86/172/229 30/170/228 75/171/230
s 47
f 41/174/231 85/175/232 17/173/233
f 17/173/233 85/175/232 63/176/234
s 48
f 42/178/235 86/179/236 41/177/237
f 41/177/237 86/179/236 85/180/238
s 49
f 29/181/239 7/182/240 90/184/241
f 90/184/241 7/182/240 89/183/242
s 50
f 24/186/243 91/187/244 7/185/245
f 7/185/245 91/187/244 89/188/246
s 51
f 25/189/247 23/190/248 92/192/249
f 92/192/249 23/190/248 93/191/250
s 52
f 36/193/251 26/194/252 95/196/253
f 95/196/253 26/194/252 94/195/254
s 53
f 25/198/255 92/199/256 26/197/257
f 26/197/257 92/199/256 94/200/258
s 54
f 29/202/259 90/203/260 8/201/261
f 8/201/261 90/203/260 96/204/262
s 55
f 43/206/263 97/207/264 24/205/265
f 24/205/265 97/207/264 91/208/266
s 56
f 44/209/267 36/210/268 98/212/269
f 98/212/269 36/210/268 95/211/270
s 57
f 44/214/271 98/215/272 43/213/273
f 43/213/273 98/215/272 97/216/274
