# This file uses centimeters as units for non-parametric coordinates.

mtllib 1.mtl
g default
v 4.534187 9.254463 2.484727
v 5.731369 8.124001 0.218420
v 6.044636 5.425974 0.677536
v 5.079991 4.832203 3.162757
v 5.794989 4.165142 -0.681129
v 4.037955 3.171797 3.535699
v -4.544699 2.788175 -2.480897
v -5.718884 3.896923 -0.258124
v -5.205571 3.243529 1.535178
v 2.863756 1.197826 -2.485247
v 4.414304 1.764533 -0.213025
v 3.680382 1.436119 1.554407
v -3.262249 1.375612 -2.271950
v -1.024077 1.375612 -3.799261
v 0.127700 1.436119 3.978736
v -1.906094 1.823814 3.986301
v -3.389811 1.281531 1.812008
v 1.125938 0.449755 -2.199601
v 1.263712 0.363413 1.828211
v -2.570413 0.465761 0.269745
v 0.159140 -0.096558 0.269745
v 4.203167 7.647674 3.952059
v 5.666350 4.314080 -1.127133
v -4.463240 3.183581 -2.841984
v 3.145983 2.567802 -3.736318
v -0.803470 2.073045 -4.503848
v 5.833568 7.243809 0.368200
v 5.225556 6.436044 2.124459
v -5.346675 3.545457 -0.962728
v -4.987047 3.007406 1.568494
v 5.590412 3.809441 -0.611770
v 3.807905 2.055124 2.261007
v 0.704923 2.020445 4.334003
v 3.966171 1.564003 0.866170
v 4.297936 8.107686 3.531972
v -1.812543 2.379242 -4.045638
v 4.500461 7.295353 3.420625
v 4.841811 5.926204 3.232959
v 4.281925 2.521648 1.497052
v -3.911307 2.090522 -2.377699
v -4.632256 2.624040 1.622586
v -4.365484 3.201151 2.448999
v -2.996429 2.738486 -3.508048
v -2.381074 3.173556 -4.270585
v 5.271558 9.803656 2.893208
v 5.015766 8.460436 4.116759
v -6.670373 3.557595 -0.299087
v -6.079873 2.788093 1.791300
v -6.237248 3.148608 -1.119008
v 6.681569 8.483683 0.246531
v 7.047551 5.331645 0.782904
v 5.941593 4.627842 3.687479
v 6.760820 3.859333 -0.794651
v 4.722657 2.685561 4.123733
v -5.302149 2.252871 -2.894380
v 3.341048 0.397464 -2.899455
v 5.150021 1.058622 -0.248529
v 4.293779 0.675472 1.813475
v -3.805957 0.604881 -2.650608
v -1.194757 0.604881 -4.432471
v 0.165413 0.665012 4.654411
v -2.216192 1.119010 4.663270
v -3.953647 0.483989 2.117138
v 1.313594 -0.475286 -2.566201
v 1.474330 -0.576018 2.132913
v -2.998815 -0.456612 0.314702
v 0.185664 -1.112651 0.314702
v 4.915917 7.921275 4.610775
v 6.605609 4.032647 -1.325445
v -5.207113 2.714178 -3.315648
v 3.670313 1.995770 -4.359037
v -0.937382 1.418552 -5.254489
v 6.800965 7.455377 0.421515
v 6.096483 6.508718 2.478536
v -5.824036 2.505014 1.831980
v 6.522147 3.444348 -0.713731
v 4.453554 1.379318 2.632645
v 0.842044 1.340052 5.071045
v 4.627200 0.824670 1.010532
v -2.114633 1.775783 -4.719911
v 5.263680 7.509143 3.989122
v 5.662978 5.907563 3.769598
v 4.995580 1.941922 1.746561
v -4.563192 1.438943 -2.773983
v -5.408569 2.056087 1.895322
v -5.096176 2.731893 2.863066
v -3.495834 2.194901 -4.092723
v -2.777921 2.702482 -4.982348
v -5.317976 2.248222 -2.890678
v -6.254472 3.132528 -1.117857
v -5.222853 2.709952 -3.312333
v 3.662717 1.990884 -4.356678
v 6.605842 4.030077 -1.309838
v -0.949205 1.413137 -5.252952
v -2.127536 1.770696 -4.717885
v -6.689113 3.542947 -0.295065
v -3.510004 2.190198 -4.090120
v -2.791431 2.698245 -4.980563
vt 0.481650 0.669035
vt 0.469294 0.598923
vt 0.443775 0.454122
vt 0.592651 0.365554
vt 0.232966 0.493968
vt 0.217484 0.603028
vt 0.173644 0.631093
vt 0.555858 0.353690
vt 0.550137 0.325356
vt 0.238757 0.406825
vt 0.376169 0.222777
vt 0.142135 0.182853
vt 0.704689 0.117327
vt 0.681124 0.057739
vt 0.813088 0.131489
vt 0.871213 0.187043
vt 0.807896 0.226453
vt 0.207991 0.274565
vt 0.313147 0.185615
vt 0.138083 0.268109
vt 0.202998 0.232438
vt 0.259701 0.268931
vt 0.517242 0.162468
vt 0.428214 0.146495
vt 0.477416 0.014222
vt 0.171443 0.136308
vt 0.348850 0.050861
vt 0.208299 0.667735
vt 0.632331 0.273846
vt 0.635168 0.254486
vt 0.710126 0.270371
vt 0.308228 0.120700
vt 0.324411 0.534580
vt 0.524604 0.046103
vt 0.294691 0.759082
vt 0.655898 0.112986
vt 0.639772 0.223055
vt 0.371438 0.136308
vt 0.299225 0.179313
vt 0.178207 0.120700
vt 0.314387 0.044791
vt 0.524604 -0.000000
vt 0.840353 0.125660
vt 0.840997 0.157447
vt 0.657277 0.037712
vt 0.419683 0.298600
vt 0.479666 0.327416
vt 0.290440 0.236512
vt 0.157233 0.202985
vt 0.118225 0.177880
vt 0.015377 0.911098
vt 0.096782 0.911098
vt 0.096782 0.992503
vt 0.015377 0.992503
vt 0.009259 0.897384
vt 0.107641 0.897384
vt 0.107641 0.995766
vt 0.009259 0.995766
vt 0.481650 0.669035
vt 0.469294 0.598923
vt 0.443775 0.454122
vt 0.592651 0.365554
vt 0.232966 0.493968
vt 0.217484 0.603028
vt 0.173644 0.631093
vt 0.555858 0.353690
vt 0.550137 0.325356
vt 0.238757 0.406825
vt 0.376169 0.222777
vt 0.138083 0.268109
vt 0.202998 0.232438
vt 0.259701 0.268931
vt 0.142135 0.182853
vt 0.632331 0.273846
vt 0.635168 0.254486
vt 0.710126 0.270371
vt 0.704689 0.117327
vt 0.681124 0.057739
vt 0.813088 0.131489
vt 0.871213 0.187043
vt 0.807896 0.226453
vt 0.207991 0.274565
vt 0.313147 0.185615
vt 0.308228 0.120700
vt 0.524604 0.046103
vt 0.655898 0.112986
vt 0.639772 0.223055
vt 0.299225 0.179313
vt 0.517242 0.162468
vt 0.428214 0.146495
vt 0.178207 0.120700
vt 0.314387 0.044791
vt 0.524604 -0.000000
vt 0.840353 0.125660
vt 0.840997 0.157447
vt 0.657277 0.037712
vt 0.208299 0.667735
vt 0.290440 0.236512
vt 0.324411 0.534580
vt 0.294691 0.759082
vt 0.419683 0.298600
vt 0.479666 0.327416
vt 0.171443 0.136308
vt 0.348850 0.050861
vt 0.371438 0.136308
vt 0.157233 0.202985
vt 0.118225 0.177880
vt 0.477416 0.014222
vt 0.009405 0.901066
vt 0.103382 0.901066
vt 0.103382 0.995042
vt 0.009405 0.995042
vt 0.009405 0.901066
vt 0.103382 0.901066
vt 0.103382 0.995042
vt 0.009405 0.995042
vt 0.009405 0.901066
vt 0.103382 0.901066
vt 0.103382 0.995042
vt 0.009405 0.995042
vt 0.009405 0.901066
vt 0.103382 0.901066
vt 0.103382 0.995042
vt 0.009405 0.995042
vt 0.009797 0.903737
vt 0.100413 0.903737
vt 0.100413 0.994353
vt 0.009797 0.994353
vt 0.009797 0.903737
vt 0.100413 0.903737
vt 0.100413 0.994353
vt 0.009797 0.994353
vt 0.009797 0.903737
vt 0.100413 0.903737
vt 0.100413 0.994353
vt 0.009797 0.994353
vt 0.009797 0.903737
vt 0.100413 0.903737
vt 0.100413 0.994353
vt 0.009797 0.994353
vt 0.009797 0.903737
vt 0.100413 0.903737
vt 0.100413 0.994353
vt 0.009797 0.994353
vt 0.009797 0.903737
vt 0.100413 0.903737
vt 0.100413 0.994353
vt 0.009797 0.994353
vt 0.009797 0.903737
vt 0.100413 0.903737
vt 0.100413 0.994353
vt 0.009797 0.994353
vt 0.012573 0.903483
vt 0.102872 0.903483
vt 0.102872 0.993781
vt 0.012573 0.993781
vt 0.012573 0.903483
vt 0.102872 0.903483
vt 0.102872 0.993781
vt 0.012573 0.993781
vt 0.012573 0.903483
vt 0.102872 0.903483
vt 0.102872 0.993781
vt 0.012573 0.993781
vt 0.012573 0.903483
vt 0.102872 0.903483
vt 0.102872 0.993781
vt 0.012573 0.993781
vt 0.012573 0.903483
vt 0.102872 0.903483
vt 0.102872 0.993781
vt 0.012573 0.993781
vt 0.012573 0.903483
vt 0.102872 0.903483
vt 0.102872 0.993781
vt 0.012573 0.993781
vt 0.012573 0.903483
vt 0.102872 0.903483
vt 0.102872 0.993781
vt 0.012573 0.993781
vt 0.012573 0.903483
vt 0.102872 0.903483
vt 0.102872 0.993781
vt 0.012573 0.993781
vt 0.012573 0.903483
vt 0.102872 0.903483
vt 0.102872 0.993781
vt 0.012573 0.993781
vt 0.012573 0.903483
vt 0.102872 0.903483
vt 0.102872 0.993781
vt 0.012573 0.993781
vt 0.012573 0.903483
vt 0.102872 0.903483
vt 0.102872 0.993781
vt 0.012573 0.993781
vt 0.012573 0.903483
vt 0.102872 0.903483
vt 0.102872 0.993781
vt 0.012573 0.993781
vt 0.012573 0.903483
vt 0.102872 0.903483
vt 0.102872 0.993781
vt 0.012573 0.993781
vt 0.012573 0.903483
vt 0.102872 0.903483
vt 0.102872 0.993781
vt 0.012573 0.993781
vt 0.012573 0.903483
vt 0.102872 0.903483
vt 0.102872 0.993781
vt 0.012573 0.993781
vt 0.012573 0.903483
vt 0.102872 0.903483
vt 0.102872 0.993781
vt 0.012573 0.993781
vn -0.762436 0.514918 0.391857
vn -0.762436 0.514917 0.391858
vn -0.762436 0.514917 0.391858
vn -0.858565 0.453204 -0.239733
vn -0.858565 0.453204 -0.239733
vn -0.858276 0.452390 -0.242291
vn -0.854862 0.455427 -0.248591
vn -0.856161 0.456513 -0.242043
vn -0.205799 0.702257 0.681529
vn -0.205799 0.702257 0.681529
vn -0.205799 0.702257 0.681529
vn -0.205799 0.702257 0.681529
vn -0.205799 0.702257 0.681529
vn 0.735004 0.676907 0.039572
vn 0.733816 0.678133 0.040619
vn 0.733589 0.678367 0.040819
vn 0.735004 0.676907 0.039572
vn 0.735004 0.676907 0.039572
vn -0.384444 0.922792 0.025635
vn -0.398481 0.916717 0.029030
vn -0.399326 0.916343 0.029235
vn -0.384444 0.922792 0.025635
vn 0.193493 0.939234 0.283550
vn 0.193493 0.939234 0.283550
vn 0.193493 0.939234 0.283550
vn 0.193493 0.939234 0.283550
vn 0.193493 0.939234 0.283550
vn 0.180623 0.910930 -0.370919
vn 0.180623 0.910930 -0.370919
vn 0.180623 0.910930 -0.370919
vn 0.180623 0.910930 -0.370919
vn 0.180623 0.910930 -0.370919
vn 0.180623 0.910930 -0.370919
vn -0.964549 -0.080014 0.251481
vn -0.964549 -0.080014 0.251481
vn -0.964549 -0.080014 0.251481
vn -0.903876 -0.171635 -0.391855
vn -0.903875 -0.171634 -0.391858
vn -0.903875 -0.171634 -0.391858
vn 0.478333 0.536757 0.695046
vn 0.478333 0.536757 0.695046
vn 0.476749 0.538721 0.694615
vn 0.476529 0.539086 0.694483
vn -0.903875 -0.171636 -0.391856
vn -0.903876 -0.171636 -0.391854
vn -0.903876 -0.171642 -0.391851
vn -0.903876 -0.171641 -0.391851
vn -0.903875 -0.171634 -0.391858
vn 0.731261 0.680772 0.042518
vn 0.727972 0.684344 0.041596
vn 0.727972 0.684344 0.041596
vn 0.731093 0.680955 0.042471
vn -0.762436 0.514917 0.391858
vn -0.762436 0.514917 0.391858
vn -0.762436 0.514917 0.391858
vn -0.855632 0.445504 -0.263476
vn -0.854757 0.447800 -0.262421
vn -0.386985 0.727076 -0.567100
vn -0.386985 0.727076 -0.567100
vn -0.386985 0.727076 -0.567100
vn -0.386985 0.727076 -0.567100
vn -0.386985 0.727077 -0.567100
vn -0.847430 0.467142 -0.252272
vn -0.846617 0.469304 -0.250984
vn -0.404143 0.914190 0.030405
vn -0.404143 0.914190 0.030405
vn -0.404143 0.914190 0.030405
vn -0.903875 -0.171634 -0.391858
vn -0.903875 -0.171634 -0.391858
vn 0.476449 0.540014 0.693817
vn 0.478139 0.544755 0.688930
vn 0.476431 0.539621 0.694135
vn -0.850834 0.457869 -0.257755
vn 0.478377 0.538781 0.693448
vn 0.731558 0.680447 0.042601
vn 0.476220 0.539375 0.694470
vn 0.642850 0.514918 -0.567101
vn 0.642850 0.514918 -0.567101
vn 0.642850 0.514918 -0.567101
vn -0.674445 0.565826 0.474304
vn -0.674445 0.565826 0.474304
vn -0.674445 0.565826 0.474304
vn -0.674445 0.565826 0.474304
vn -0.324294 0.854721 0.405321
vn -0.324294 0.854721 0.405321
vn -0.324294 0.854721 0.405321
vn -0.324294 0.854721 0.405321
vn 0.762750 -0.514963 -0.391185
vn 0.762414 -0.514986 -0.391810
vn 0.762414 -0.514986 -0.391809
vn 0.859592 -0.453023 0.236373
vn 0.857507 -0.456146 0.237935
vn 0.856065 -0.455223 0.244796
vn 0.859199 -0.452231 0.239298
vn 0.859592 -0.453023 0.236373
vn 0.205799 -0.702257 -0.681529
vn 0.205799 -0.702257 -0.681529
vn 0.205799 -0.702257 -0.681529
vn 0.205799 -0.702257 -0.681529
vn 0.205799 -0.702257 -0.681529
vn -0.734283 -0.677607 -0.040950
vn -0.734283 -0.677607 -0.040950
vn -0.734283 -0.677607 -0.040950
vn -0.734242 -0.677563 -0.042394
vn -0.734249 -0.677570 -0.042163
vn 0.384444 -0.922792 -0.025635
vn 0.384444 -0.922792 -0.025635
vn 0.399326 -0.916343 -0.029235
vn 0.398481 -0.916717 -0.029030
vn -0.193493 -0.939234 -0.283550
vn -0.193493 -0.939234 -0.283550
vn -0.193493 -0.939234 -0.283550
vn -0.193493 -0.939234 -0.283550
vn -0.193493 -0.939234 -0.283550
vn -0.179474 -0.912082 0.368639
vn -0.179474 -0.912082 0.368639
vn -0.179474 -0.912082 0.368639
vn -0.179474 -0.912082 0.368639
vn -0.179474 -0.912082 0.368639
vn -0.179474 -0.912082 0.368639
vn 0.963469 0.084629 -0.254098
vn 0.963469 0.084629 -0.254098
vn 0.963469 0.084629 -0.254098
vn 0.904769 0.184270 0.383977
vn 0.904243 0.177048 0.388586
vn 0.904136 0.177249 0.388742
vn -0.478333 -0.536757 -0.695046
vn -0.476529 -0.539086 -0.694483
vn -0.476749 -0.538721 -0.694615
vn -0.478333 -0.536757 -0.695046
vn 0.904719 0.175737 0.388071
vn 0.905951 0.173661 0.386128
vn 0.905810 0.173772 0.386408
vn 0.905539 0.172576 0.387578
vn 0.904252 0.176494 0.388816
vn -0.734050 -0.677639 -0.044458
vn -0.733978 -0.677717 -0.044461
vn -0.732608 -0.679193 -0.044519
vn -0.732608 -0.679193 -0.044519
vn 0.762412 -0.514986 -0.391812
vn 0.762412 -0.514986 -0.391812
vn 0.762412 -0.514986 -0.391812
vn 0.855133 -0.448086 0.260704
vn 0.855632 -0.445504 0.263476
vn 0.386836 -0.732768 0.559830
vn 0.386836 -0.732768 0.559830
vn 0.386836 -0.732768 0.559830
vn 0.386836 -0.732768 0.559830
vn 0.386836 -0.732768 0.559830
vn 0.849252 -0.468236 0.243979
vn 0.849931 -0.466562 0.244821
vn 0.404143 -0.914190 -0.030405
vn 0.404143 -0.914190 -0.030405
vn 0.404143 -0.914190 -0.030405
vn 0.904126 0.177147 0.388812
vn 0.904126 0.177147 0.388811
vn -0.476449 -0.540014 -0.693817
vn -0.476430 -0.539621 -0.694135
vn -0.478139 -0.544755 -0.688930
vn 0.852773 -0.459439 0.248384
vn -0.478377 -0.538781 -0.693448
vn -0.734181 -0.677498 -0.044452
vn -0.476220 -0.539375 -0.694470
vn -0.642850 -0.514918 0.567101
vn -0.642850 -0.514918 0.567101
vn -0.642850 -0.514918 0.567101
vn -0.284186 0.789195 -0.544435
vn -0.284186 0.789195 -0.544435
vn -0.284186 0.789195 -0.544435
vn -0.284186 0.789195 -0.544435
vn 0.088564 -0.157094 -0.983604
vn 0.088564 -0.157094 -0.983604
vn 0.088564 -0.157094 -0.983604
vn 0.088564 -0.157094 -0.983605
vn 0.134877 0.830724 -0.540099
vn 0.134877 0.830723 -0.540099
vn 0.134877 0.830723 -0.540099
vn 0.134877 0.830723 -0.540099
vn 0.088564 -0.157094 -0.983604
vn 0.088564 -0.157094 -0.983604
vn 0.088564 -0.157094 -0.983604
vn 0.088564 -0.157094 -0.983604
vn -0.393265 0.429410 0.812988
vn -0.393265 0.429410 0.812988
vn -0.393265 0.429410 0.812988
vn -0.393265 0.429410 0.812988
vn -0.744261 -0.430022 0.511034
vn -0.744261 -0.430022 0.511034
vn -0.744261 -0.430022 0.511034
vn -0.744261 -0.430022 0.511034
vn -0.666970 0.569473 0.480470
vn -0.666970 0.569473 0.480470
vn -0.666970 0.569473 0.480470
vn -0.666970 0.569473 0.480470
vn 0.388932 0.707175 0.590454
vn 0.388932 0.707175 0.590454
vn 0.388932 0.707175 0.590454
vn 0.388932 0.707175 0.590454
vn -0.129469 -0.858281 0.496581
vn -0.129469 -0.858281 0.496581
vn -0.129469 -0.858280 0.496581
vn -0.129469 -0.858281 0.496581
vn -0.534374 -0.244146 0.809220
vn -0.534374 -0.244146 0.809220
vn -0.534374 -0.244146 0.809220
vn -0.534374 -0.244145 0.809220
vn -0.541730 -0.170756 0.823026
vn -0.541730 -0.170756 0.823026
vn -0.541730 -0.170756 0.823026
vn -0.541730 -0.170756 0.823026
vn 0.128033 0.657144 0.742812
vn 0.128033 0.657144 0.742812
vn 0.128033 0.657144 0.742812
vn 0.128033 0.657144 0.742812
vn -0.742562 0.419073 0.522475
vn -0.742562 0.419073 0.522475
vn -0.742562 0.419073 0.522475
vn -0.742562 0.419073 0.522475
vn 0.141283 0.265021 0.953836
vn 0.141283 0.265021 0.953836
vn 0.141283 0.265021 0.953836
vn 0.141283 0.265021 0.953836
vn -0.708101 0.625762 0.327132
vn -0.708101 0.625762 0.327132
vn -0.708101 0.625762 0.327132
vn -0.708101 0.625762 0.327132
vn -0.475370 0.867818 0.144618
vn -0.475370 0.867818 0.144618
vn -0.475370 0.867818 0.144618
vn -0.475370 0.867818 0.144618
vn 0.141103 0.265166 0.953822
vn 0.141103 0.265166 0.953822
vn 0.141103 0.265166 0.953822
vn 0.141103 0.265166 0.953822
vn 0.629605 -0.717553 0.297850
vn 0.629605 -0.717553 0.297850
vn 0.629605 -0.717553 0.297850
vn 0.629605 -0.717553 0.297850
vn -0.270186 0.796947 -0.540254
vn -0.270186 0.796948 -0.540254
vn -0.270186 0.796947 -0.540254
vn -0.270186 0.796947 -0.540254
vn -0.658750 0.576823 0.483035
vn -0.658750 0.576823 0.483035
vn -0.658750 0.576823 0.483035
vn -0.658750 0.576823 0.483035
vn 0.111941 0.772458 -0.625123
vn 0.111941 0.772458 -0.625123
vn 0.111941 0.772458 -0.625123
vn 0.111941 0.772458 -0.625123
vn -0.067006 0.755112 -0.652163
vn -0.067006 0.755112 -0.652163
vn -0.067006 0.755112 -0.652163
vn -0.067006 0.755112 -0.652163
vn 0.035628 0.746443 -0.664495
vn 0.035628 0.746443 -0.664495
vn 0.035628 0.746443 -0.664495
vn 0.035628 0.746443 -0.664495
vn -0.270186 0.796947 -0.540254
vn -0.270186 0.796947 -0.540254
vn -0.270186 0.796948 -0.540254
vn -0.270186 0.796948 -0.540254
vn -0.067007 0.755111 -0.652163
vn -0.067007 0.755111 -0.652163
vn -0.067007 0.755111 -0.652163
vn -0.067007 0.755111 -0.652163
vn 0.706204 0.327737 -0.627586
vn 0.706204 0.327737 -0.627586
vn 0.706204 0.327737 -0.627586
vn 0.706204 0.327737 -0.627586
vn -0.662812 0.740285 -0.112505
vn -0.662812 0.740285 -0.112505
vn -0.662812 0.740285 -0.112505
vn -0.662812 0.740285 -0.112505
s 1
g pSolid4
usemtl anisotropic4SG
f 5/8/1 23/4/2 31/9/3
s 2
f 3/3/4 5/8/5 31/9/6 39/11/7 4/10/8
s off
f 10/13/9 25/17/10 26/16/11 14/15/12 18/14/13
s 3
f 13/32/14 40/39/15 41/37/16 17/36/17 20/34/18
s 4
f 10/13/19 18/14/20 34/24/21 11/23/22
s off
f 13/32/23 20/34/24 21/42/25 18/41/26 14/40/27
f 15/43/28 19/45/29 21/42/30 20/34/31 17/36/32 16/44/33
f 23/4/34 5/8/35 3/3/36
s 5
f 22/7/37 35/28/38 37/6/39
s 6
f 24/22/40 7/48/41 40/39/42 43/21/43
s 5
f 28/33/44 3/3/45 4/10/46 38/5/47
f 27/2/48 3/3/45 28/33/44
s 3
f 29/46/49 8/47/50 9/29/51 30/30/52
s 1
f 23/4/2 25/17/53 10/13/54 11/23/55 31/9/3
s 2
f 31/9/6 11/23/56 34/24/57 39/11/7
s off
f 32/19/58 12/38/59 19/27/60 15/26/61 33/12/62
s 5
f 37/6/39 28/33/44 38/5/47
s 2
f 39/11/7 32/19/63 6/18/64 4/10/8
s 4
f 18/14/20 21/25/65 19/27/66 12/38/67 34/24/21
s 5
f 35/28/38 1/35/68 2/1/69 27/2/48 28/33/44 37/6/39
s 6
f 14/40/70 26/50/71 36/49/72
s 2
f 34/24/57 12/38/73 32/19/63 39/11/7
s 6
f 43/21/43 36/49/72 44/20/74
s 3
f 40/39/15 7/48/75 29/46/49 30/30/52 41/37/16
s 6
f 40/39/42 13/32/76 14/40/70 36/49/72 43/21/43
s off
f 41/37/77 30/30/78 42/31/79
f 1/51/80 35/52/81 46/53/82 45/54/83
f 9/55/84 8/56/85 47/57/86 48/58/87
s 8
f 53/66/88 76/67/89 69/62/90
s 9
f 51/61/91 52/68/92 83/69/93 76/67/94 53/66/95
s off
f 56/77/96 64/78/97 60/79/98 72/80/99 71/81/100
s 10
f 59/84/101 66/85/102 63/86/103 85/87/104 84/88/105
s 11
f 56/77/106 57/89/107 79/90/108 64/78/109
s off
f 59/84/110 60/91/111 64/92/112 67/93/113 66/85/114
f 61/94/115 62/95/116 63/86/117 66/85/118 67/93/119 65/96/120
f 69/62/121 51/61/122 53/66/123
s 12
f 68/65/124 81/64/125 46/97/126
s 13
f 70/72/127 87/71/128 84/88/129 55/98/130
s 12
f 74/99/131 82/63/132 52/68/133 51/61/134
f 73/60/135 74/99/131 51/61/134
s 10
f 49/101/136 75/75/137 48/74/138 47/102/139
s 8
f 69/62/90 76/67/89 57/89/140 56/77/141 71/81/142
s 9
f 76/67/94 83/69/93 79/90/143 57/89/144
s off
f 77/83/145 78/73/146 61/103/147 65/104/148 58/105/149
s 12
f 81/64/125 82/63/132 74/99/131
s 9
f 83/69/93 52/68/92 54/82/150 77/83/151
s 11
f 64/78/109 79/90/108 58/105/152 65/104/153 67/108/154
s 12
f 46/97/126 81/64/125 74/99/131 73/60/135 50/59/155 45/100/156
s 13
f 60/91/157 80/106/158 72/107/159
s 9
f 79/90/143 83/69/93 77/83/151 58/105/160
s 13
f 87/71/128 88/70/161 80/106/158
s 10
f 84/88/105 85/87/104 75/75/137 49/101/136 55/98/162
s 13
f 84/88/129 87/71/128 80/106/158 60/91/157 59/84/163
s off
f 85/87/164 86/76/165 75/75/166
f 2/109/167 1/110/168 45/111/169 50/112/170
f 27/113/171 2/114/172 50/115/173 73/116/174
f 23/117/175 3/118/176 51/119/177 69/120/178
f 3/121/179 27/122/180 73/123/181 51/124/182
f 4/125/183 6/126/184 54/127/185 52/128/186
f 6/129/187 32/130/188 77/131/189 54/132/190
f 35/133/191 22/134/192 68/135/193 46/136/194
f 32/137/195 33/138/196 78/139/197 77/140/198
f 22/141/199 37/142/200 81/143/201 68/144/202
f 37/145/203 38/146/204 82/147/205 81/148/206
f 38/149/207 4/150/208 52/151/209 82/152/210
f 15/153/211 16/154/212 62/155/213 61/156/214
f 33/157/215 15/158/216 61/159/217 78/160/218
f 30/161/219 9/162/220 48/163/221 75/164/222
f 16/165/223 17/166/224 63/167/225 62/168/226
f 42/169/227 30/170/228 75/171/229 86/172/230
f 17/173/231 41/174/232 85/175/233 63/176/234
f 41/177/235 42/178/236 86/179/237 85/180/238
f 29/181/239 7/182/240 89/183/241 90/184/242
f 7/185/243 24/186/244 91/187/245 89/188/246
f 25/189/247 23/190/248 93/191/249 92/192/250
f 36/193/251 26/194/252 94/195/253 95/196/254
f 26/197/255 25/198/256 92/199/257 94/200/258
f 8/201/259 29/202/260 90/203/261 96/204/262
f 24/205/263 43/206/264 97/207/265 91/208/266
f 44/209/267 36/210/268 95/211/269 98/212/270
f 43/213/271 44/214/272 98/215/273 97/216/274
