# Blender v2.71 (sub 0) OBJ File: ''
# www.blender.org
mtllib brokenClonerGlass.mtl
o brokenClonerGlass
v 37.935688 -0.814453 -9.620224
v 44.285686 -1.183601 -15.344139
v 42.601276 2.347073 -12.407585
v 42.682365 8.159902 -10.153548
v 44.332893 7.509293 -11.867896
v 48.538273 9.173635 -10.534304
v 49.169464 13.102425 -4.142370
v 37.710213 -0.708406 -9.877357
v 42.375801 2.453117 -12.664722
v 44.060162 -1.077407 -15.601173
v 44.186661 7.713524 -12.086196
v 42.536129 8.364135 -10.371848
v 49.102440 13.404992 -4.321726
v 48.471249 9.476204 -10.713655
v 57.594849 10.772254 -8.664762
v 55.750465 14.377062 -9.711723
v 54.139885 13.156960 -9.358791
v 50.328381 10.771180 -8.736790
v 50.102436 12.444653 -9.204450
v 49.097408 11.819909 -7.896843
v 48.714855 10.771419 -7.087061
v 57.595329 10.701127 -8.911559
v 54.140366 13.085833 -9.605589
v 55.750622 14.305500 -9.958397
v 50.015587 12.374005 -9.415277
v 50.212269 10.700415 -8.935487
v 48.922836 11.749106 -8.071427
v 48.540215 10.700415 -7.261498
v 45.221127 10.770768 -3.691029
v 43.637581 16.317478 -1.592753
v 44.497875 13.298047 -0.026173
v 45.175491 10.771071 3.601364
v 44.694397 12.462066 3.803613
v 46.630123 13.809758 6.227886
v 50.344498 10.774468 8.709944
v 44.974106 10.700417 -3.691263
v 44.250854 13.227695 -0.026408
v 43.390591 16.247025 -1.592911
v 44.483643 12.391670 3.890862
v 44.964737 10.700676 3.688612
v 50.170040 10.703926 8.884751
v 46.455666 13.739217 6.402694
v 60.939587 3.393839 -14.571578
v 66.032608 -0.841926 -9.017994
v 65.490105 3.024696 -18.568539
v 61.942379 0.379853 -7.780079
v 60.536598 1.566637 -9.253368
v 65.829765 -0.314181 -7.956917
v 69.687271 1.281559 -2.587429
v 65.336235 1.229222 -4.437931
v 60.810837 3.081026 -14.688960
v 65.361504 2.711875 -18.686064
v 65.940620 -1.161712 -9.008896
v 61.849625 0.060140 -7.771042
v 60.407700 1.253836 -9.370609
v 65.774544 -0.640937 -7.821342
v 69.633438 0.954659 -2.451603
v 65.282402 0.902322 -4.302113
v 59.780396 14.270402 7.804595
v 62.626625 10.773472 3.547933
v 57.361389 10.777398 8.749407
v 63.501118 13.813228 3.948138
v 62.725636 14.796855 5.083730
v 62.742661 11.300586 2.875253
v 62.567017 10.773622 -1.971767
v 63.194408 12.865372 0.623542
v 59.954323 14.197273 7.978867
v 57.535233 10.704154 8.923714
v 62.836887 10.700996 3.634850
v 63.711536 13.741205 4.035335
v 62.899647 14.723841 5.257966
v 62.989254 11.228764 2.874816
v 62.813381 10.701009 -1.972800
v 63.440773 12.792759 0.622509
v 42.932323 0.643480 15.893700
v 46.958210 0.417155 11.682198
v 44.522099 0.332721 10.187328
v 39.465218 0.028931 6.394836
v 41.630344 -0.006570 5.264423
v 39.884132 1.451723 4.332401
v 38.086712 2.131115 4.387470
v 42.933449 0.285971 15.913475
v 44.523224 -0.024789 10.207115
v 46.958591 0.059631 11.701775
v 41.576946 -0.321783 5.172058
v 39.393169 -0.272110 6.265045
v 39.775127 1.178910 4.127712
v 37.977371 1.858422 4.182800
v 49.377125 4.304136 11.893189
v 49.690315 -0.020292 14.398041
v 56.410137 -0.231176 13.715515
v 49.319801 4.023310 11.415528
v 56.352802 -0.511995 13.237854
v 49.632988 -0.301115 13.920387
v 57.551289 2.310297 12.653635
v 59.577274 0.230449 14.042505
v 62.445469 0.600480 10.801474
v 57.391689 2.039904 12.481527
v 62.285870 0.330085 10.629362
v 59.417675 -0.039946 13.870394
v 50.501278 15.945913 4.755032
v 48.082699 11.888497 2.436703
v 49.441093 14.360398 1.391964
v 50.579659 16.662598 -1.454702
v 49.836727 15.382848 -1.788977
v 51.211098 14.107246 -4.000544
v 54.962948 16.096218 -5.845429
v 50.310047 16.054672 4.764040
v 49.249863 14.469159 1.400974
v 47.891518 11.997342 2.445657
v 49.677090 15.492696 -1.854743
v 50.420021 16.772449 -1.520468
v 54.834949 16.207247 -5.986026
v 51.083103 14.218275 -4.141140
v 62.087711 11.184603 -5.490228
v 65.103745 13.079265 -1.544577
v 60.803478 14.659691 -5.933661
v 65.216537 10.425893 -2.190141
v 64.388100 9.881823 -3.247608
v 65.081818 12.554450 -1.024308
v 64.965973 12.555777 3.156338
v 65.101959 10.949761 0.736312
v 62.250210 11.226326 -5.632811
v 60.965931 14.701532 -6.076262
v 65.294960 13.104526 -1.613118
v 65.407806 10.450780 -2.258965
v 64.550644 9.923431 -3.390173
v 65.301743 12.563249 -1.018804
v 65.185860 12.565224 3.162427
v 65.321846 10.959205 0.742402
v 60.014511 10.701074 -6.491136
v 61.379440 12.448358 -5.847419
v 62.806152 10.701014 -3.698070
v 59.840134 10.773081 -6.316847
v 62.631775 10.773021 -3.523781
v 61.205063 12.520365 -5.673130
v 62.784077 12.700312 7.031820
v 63.573215 11.038568 6.301789
v 65.152290 12.399298 4.631689
v 62.626995 12.693428 6.877691
v 64.995216 12.392412 4.477559
v 63.416142 11.031681 6.147660
v 60.720814 12.926408 8.894597
v 58.431931 10.222648 9.447074
v 57.346451 11.595613 9.278603
v 54.671646 14.409383 9.012311
v 54.133980 13.026832 9.248261
v 53.446053 13.876148 8.203755
v 53.354923 14.899908 7.619906
v 60.731815 12.961165 9.111733
v 57.357452 11.630372 9.495739
v 58.442753 10.257844 9.664151
v 54.072765 13.082576 9.435395
v 54.586292 14.472400 9.189354
v 53.312431 13.953512 8.360720
v 53.221291 14.977468 7.776766
v -3.825500 10.544499 8.772102
v -3.825500 33.882000 8.772106
v -5.843400 10.544499 6.750902
v -5.843400 33.875198 6.750906
v -6.754000 33.868301 5.842606
v -8.768700 33.875198 3.854905
v -6.754000 10.544499 5.842602
v -8.768700 10.544499 3.854902
v -8.910000 10.544499 3.496202
v -8.910000 33.882000 3.496305
v -8.919800 10.544501 -3.477898
v -8.919800 33.882000 -3.477895
v -8.773100 10.544501 -3.824598
v -8.773100 33.882000 -3.824594
v -6.764000 10.539601 -5.853698
v -6.765700 33.875198 -5.855894
v -5.860300 10.532901 -6.767698
v -5.860300 33.868301 -6.767694
v -3.857700 10.538701 -8.765298
v -3.857700 33.875198 -8.765194
v -3.497800 10.544502 -8.908298
v -3.497800 33.882000 -8.908295
v 3.484100 10.544402 -8.922898
v 3.478700 33.882000 -8.921994
v 3.825800 10.544501 -8.766598
v 3.825800 33.882000 -8.766495
v 5.831200 10.544501 -6.752398
v 5.831200 33.875198 -6.752394
v 6.747100 33.868301 -5.839394
v 8.752400 33.875198 -3.864594
v 6.747100 10.544501 -5.839398
v 8.752400 10.544501 -3.864598
v 8.907400 10.544501 -3.500898
v 8.907300 33.882000 -3.500994
v 8.920100 10.544499 3.439402
v 8.920100 33.882000 3.439405
v 8.775000 10.710999 3.824002
v 8.773100 33.882000 3.824005
v 6.777700 10.544499 5.831702
v 6.777700 33.875198 5.831706
v 5.848400 34.034801 6.758006
v 3.859100 34.041599 8.762906
v 5.848400 10.710999 6.758002
v 3.859100 10.710999 8.762902
v 3.498200 10.544498 8.908702
v 3.498200 33.882000 8.908706
v -3.469400 10.544498 8.925302
v -3.469400 33.882000 8.925305
v 3.733000 10.710999 8.887502
vt 0.351543 0.877168
vt 0.413395 0.877168
vt 0.413395 0.939020
vt 0.351543 0.939020
vt 0.372833 0.693731
vt 0.374883 0.698888
vt 0.375770 0.696081
vt 0.379280 0.693731
vt 0.379280 0.695303
vt 0.372938 0.695389
vt 0.375852 0.696640
vt 0.372938 0.693818
vt 0.379379 0.693818
vt 0.373409 0.712877
vt 0.378347 0.712877
vt 0.378347 0.717815
vt 0.345343 0.642844
vt 0.425181 0.642844
vt 0.345342 0.646185
vt 0.425181 0.646185
vt 0.423438 0.647262
vt 0.345342 0.647954
vt 0.345342 0.646641
vt 0.425181 0.646641
vt 0.478100 0.872300
vt 0.777700 0.871700
vt 0.478600 0.909300
vt 0.777400 0.908300
vt 0.776400 0.924800
vt 0.776200 0.960800
vt 0.479600 0.924100
vt 0.479100 0.958700
vt 0.477800 0.872500
vt 0.775900 0.872500
vt 0.477800 0.961600
vt 0.775900 0.961600
vt 0.475900 0.872300
vt 0.779600 0.869800
vt 0.476200 0.909500
vt 0.779800 0.906900
vt 0.476000 0.926200
vt 0.779700 0.928200
vt 0.475800 0.963000
vt 0.779600 0.965000
vt 0.468300 0.871800
vt 0.783000 0.871800
vt 0.468300 0.965900
vt 0.783000 0.965900
vt 0.470900 0.871800
vt 0.784000 0.869100
vt 0.471200 0.909900
vt 0.784200 0.907300
vt 0.784100 0.929100
vt 0.784000 0.966900
vt 0.471100 0.927300
vt 0.470900 0.965100
vt 0.465600 0.869300
vt 0.781600 0.869300
vt 0.465600 0.963300
vt 0.781600 0.963300
vt 0.474900 0.871800
vt 0.782800 0.869400
vt 0.475200 0.909200
vt 0.783000 0.906700
vt 0.782900 0.928200
vt 0.782800 0.965500
vt 0.475100 0.926500
vt 0.474900 0.963800
vt 0.463300 0.868600
vt 0.784000 0.868600
vt 0.463300 0.964300
vt 0.784000 0.964300
vt 0.761800 0.212900
vt 0.853300 0.212900
vt 0.761800 0.214500
vn 0.629800 -0.296600 0.717900
vn 0.627700 -0.289000 0.722800
vn 0.633100 -0.287500 0.718700
vn 0.179400 -0.850000 0.495300
vn 0.179100 -0.846000 0.502300
vn -0.629800 0.296600 -0.717900
vn -0.629600 0.295700 -0.718400
vn -0.187200 0.845000 -0.500900
vn -0.229100 -0.954200 -0.192600
vn -0.229400 -0.954000 -0.192900
vn 0.731400 -0.179400 -0.657900
vn 0.706800 -0.165200 -0.687900
vn 0.978700 0.116900 -0.168500
vn 0.415800 -0.393800 -0.819800
vn 0.441900 -0.488100 -0.752700
vn 0.696200 0.625400 -0.352500
vn 0.696200 0.625300 -0.352500
vn -0.590000 0.353400 0.725900
vn -0.618400 0.368300 0.694200
vn -0.745700 0.209700 0.632400
vn -0.735900 0.172800 0.654700
vn -0.000600 0.278600 0.960400
vn -0.009600 0.266600 0.963800
vn -0.010400 0.267800 0.963400
vn 0.692100 0.279400 0.665500
vn 0.688600 0.268900 0.673400
vn 0.000600 -0.278600 -0.960400
vn 0.003100 -0.275200 -0.961400
vn -0.679400 -0.274900 -0.680300
vn -0.679900 -0.276500 -0.679200
vn -0.678700 0.587700 0.440300
vn 0.897500 0.423700 -0.122300
vn 0.897500 0.424300 -0.120500
vn -0.546000 0.836000 -0.055200
vn -0.445300 0.891500 0.083700
vn -0.619200 0.754200 -0.218600
vn -0.619200 0.754000 -0.219100
vn -0.177300 0.945600 -0.272900
vn -0.175800 0.953000 -0.246900
vn 0.961600 0.274300 0.000600
vn 0.963700 0.267000 0.006000
vn 0.962100 0.272500 0.010100
vn 0.671800 0.273500 -0.688400
vn 0.677100 0.268200 -0.685300
vn -0.961600 -0.274300 -0.000600
vn -0.961900 -0.273500 -0.001200
vn -0.679200 -0.274600 0.680600
vn -0.092800 0.329000 -0.939800
vn -0.093200 0.328900 -0.939800
vn -0.227600 0.949400 0.216200
vn -0.267500 0.938400 0.218600
vn 0.256300 0.780200 0.570600
vn -0.468100 0.876400 -0.113500
vn -0.380100 0.905700 -0.187500
vn -0.123100 0.429200 0.894800
vn -0.123000 0.429200 0.894800
vn 0.362300 0.870900 0.332000
vn 0.363600 0.863800 0.348900
vn 0.367500 0.870600 0.327000
vn 0.141100 0.896900 -0.419100
vn 0.196400 0.892400 -0.406300
vn 0.150300 0.913000 -0.379300
vn -0.359200 -0.873700 -0.328200
vn -0.360000 -0.873600 -0.327400
vn -0.158100 -0.912200 0.377900
vn -0.150400 -0.913000 0.379300
vn -0.150300 -0.913000 0.379300
vn -0.361500 0.407900 0.838400
vn 0.107300 0.365500 0.924600
vn 0.017000 0.023300 0.999600
vn -0.930200 0.363000 0.054200
vn -0.930400 0.362700 0.054100
vn -0.555500 0.482700 -0.677000
vn -0.644400 0.207800 0.735900
vn -0.711100 0.029700 0.702500
vn -0.979800 0.092000 -0.177400
vn -0.980400 0.088200 -0.176200
vn 0.946200 -0.276900 -0.167500
vn 0.931700 -0.315200 -0.180500
vn 0.867600 -0.305800 -0.392100
vn 0.874500 -0.263100 -0.407500
vn -0.674100 0.282200 -0.682600
vn -0.661000 0.281700 -0.695400
vn -0.678300 0.276500 -0.680700
vn -0.961600 0.270600 0.046100
vn -0.973700 0.227800 0.010500
vn -0.959200 0.282700 0.004000
vn 0.676800 -0.285200 0.678600
vn 0.677500 -0.284300 0.678400
vn 0.961000 -0.276600 0.000600
vn 0.959200 -0.282700 -0.004000
vn 0.213800 0.734700 -0.643800
vn 0.104300 0.363800 -0.925600
vn 0.445500 0.266700 -0.854700
vn 0.103000 0.949900 0.295200
vn 0.103200 0.949700 0.295500
vn -0.482700 0.524100 0.701700
vn 0.434600 0.820700 -0.371000
vn 0.585700 0.766400 -0.263800
vn 0.227600 0.777900 0.585800
vn 0.231300 0.776500 0.586100
vn -0.001100 0.998500 -0.054700
vn -0.015900 0.998100 -0.058800
vn -0.015000 0.998100 -0.060000
vn 0.315800 0.749800 0.581400
vn 0.303000 0.754500 0.582100
vn 0.001100 -0.998500 0.054700
vn 0.005200 -0.998400 0.055800
vn -0.303500 -0.762300 -0.571700
vn -0.305400 -0.761600 -0.571600
vn 0.180200 0.543200 -0.820000
vn 0.579700 0.137100 -0.803200
vn 0.628000 0.290700 -0.721900
vn 0.523700 -0.045400 -0.850700
vn 0.523600 -0.046000 -0.850700
vn 0.862700 -0.025200 -0.505000
vn 0.863000 0.001800 -0.505100
vn -0.939600 0.016000 0.341900
vn -0.937400 0.078000 0.339400
vn -0.841200 -0.031400 0.539800
vn -0.848800 -0.054400 0.525900
vn 0.723400 0.038500 0.689400
vn 0.723400 0.040400 0.689200
vn 0.102900 0.504100 0.857500
vn -0.102900 -0.504100 -0.857500
vn -0.992700 -0.002100 0.120400
vn 0.024200 -0.863100 0.504500
vn 0.561300 0.682200 -0.468500
vn 0.445700 0.755200 0.480700
vn -0.445700 -0.755200 -0.480700
vn -0.636500 -0.110200 0.763400
vn 0.604400 -0.650000 0.460700
vn -0.104800 0.577300 -0.809800
vn 0.868300 -0.494400 -0.040700
vn 0.872100 -0.487200 -0.045200
vn 0.869400 -0.491700 -0.049900
vn 0.574200 -0.502200 0.646500
vn 0.580700 -0.498100 0.644000
vn -0.868300 0.494400 0.040700
vn -0.868700 0.493600 0.041200
vn -0.581300 0.504300 -0.638600
vn -0.186100 -0.401500 0.896800
vn -0.186400 -0.401300 0.896800
vn -0.443400 -0.836800 -0.321300
vn -0.479500 -0.816300 -0.322000
vn 0.073400 -0.749100 -0.658400
vn -0.665600 -0.746100 0.016700
vn -0.588600 -0.803800 0.086100
vn -0.205200 -0.283200 -0.936900
vn -0.205100 -0.283200 -0.936900
vn -0.734600 -0.188300 0.651900
vn -0.722000 -0.192400 0.664600
vn -0.737300 -0.181600 0.650800
vn -0.997300 -0.025800 -0.068100
vn -0.999500 0.014300 -0.027700
vn -0.998700 -0.042900 -0.027700
vn 0.737800 0.190000 -0.647700
vn 0.738300 0.189000 -0.647500
vn 0.999100 0.037000 0.022300
vn 0.998700 0.042900 0.027700
vn 0.020400 -0.832500 0.553600
vn -0.002700 -0.480500 0.877000
vn 0.353000 -0.460400 0.814500
vn -0.121100 -0.907200 -0.402800
vn -0.120800 -0.907100 -0.403100
vn -0.580600 -0.310600 -0.752600
vn 0.219400 -0.937300 0.270700
vn 0.381000 -0.909000 0.169200
vn 0.046400 -0.738300 -0.672900
vn 0.050300 -0.737900 -0.673100
vn 0.678900 -0.280400 -0.678600
vn -0.678900 0.280400 0.678600
vn -0.435400 0.590500 -0.679500
vn -0.435400 0.590500 -0.679600
vn 0.573900 0.779100 0.252400
vn 0.573900 0.779000 0.252400
vn 0.713400 0.031300 0.700000
vn -0.713400 -0.031300 -0.700000
vn -0.576200 -0.542300 0.611500
vn 0.376200 -0.859900 -0.345000
vn -0.049200 -0.159800 -0.985900
vn -0.054900 -0.145700 -0.987800
vn -0.056100 -0.146700 -0.987600
vn 0.617800 -0.359600 -0.699300
vn 0.617000 -0.347700 -0.706000
vn 0.049200 0.159800 0.985900
vn 0.050800 0.155900 0.986500
vn -0.606800 0.350500 0.713400
vn -0.606900 0.352300 0.712400
vn -0.791000 -0.354700 -0.498500
vn -0.730500 -0.681900 -0.035800
vn -0.643400 -0.743800 -0.181100
vn -0.785100 -0.604100 0.136500
vn -0.785200 -0.603900 0.137100
vn -0.402700 -0.900400 0.164500
vn -0.402600 -0.904900 0.137900
vn -0.707700 -0.000000 0.706500
vn -0.702300 -0.000000 0.711900
vn -1.000000 -0.000000 0.001400
vn -0.710600 0.000000 -0.703600
vn -0.711300 -0.000100 -0.702900
vn -0.706200 0.000000 -0.708000
vn -0.002100 0.000000 -1.000000
vn -0.002000 0.000000 -1.000000
vn 0.708700 0.000000 -0.705600
vn 0.708600 0.000000 -0.705600
vn 0.701700 0.000000 -0.712500
vn 1.000000 0.000000 -0.001800
vn 0.708900 0.000100 0.705300
vn 0.709300 -0.000000 0.704900
vn 0.709900 -0.000000 0.704300
vn 0.002400 -0.000000 1.000000
vn 0.702900 -0.000000 0.711300
usemtl None
s off
f 1/1/1 2/2/1 3/3/1
f 1/2/2 3/3/2 4/1/2
f 4/1/3 3/3/3 5/4/3
f 5/2/4 6/3/4 4/1/4
f 4/1/5 6/3/5 7/4/5
f 8/1/6 9/2/6 10/3/6
f 11/2/7 9/3/7 12/1/7
f 12/1/7 9/3/7 8/4/7
f 13/2/8 14/3/8 12/1/8
f 12/1/8 14/3/8 11/4/8
f 10/2/9 1/4/9 8/1/9
f 1/4/10 10/2/10 2/3/10
f 11/2/11 5/3/11 9/1/11
f 9/1/12 5/3/12 3/4/12
f 7/1/13 6/2/13 13/4/13
f 13/4/13 6/2/13 14/3/13
f 6/1/14 5/2/14 14/4/14
f 14/4/15 5/2/15 11/3/15
f 3/1/16 2/2/16 9/4/16
f 9/4/17 2/2/17 10/3/17
f 12/2/18 8/3/18 4/1/18
f 8/3/19 1/4/19 4/1/19
f 7/2/20 13/3/20 4/1/20
f 4/1/21 13/3/21 12/4/21
f 15/1/22 16/2/22 17/3/22
f 15/2/23 17/3/23 18/1/23
f 18/1/24 17/3/24 19/4/24
f 18/1/25 19/2/25 20/3/25
f 21/1/26 18/2/26 20/3/26
f 22/1/27 23/2/27 24/3/27
f 25/2/28 23/3/28 26/1/28
f 26/1/28 23/3/28 22/4/28
f 26/1/29 27/2/29 25/3/29
f 28/1/30 27/2/30 26/3/30
f 21/1/31 20/2/31 28/4/31
f 28/4/31 20/2/31 27/3/31
f 16/1/32 15/2/32 24/4/32
f 24/4/33 15/2/33 22/3/33
f 25/2/34 27/3/34 19/1/34
f 19/1/35 27/3/35 20/4/35
f 23/1/36 17/2/36 24/4/36
f 24/4/37 17/2/37 16/3/37
f 17/2/38 23/3/38 19/1/38
f 19/1/39 23/3/39 25/4/39
f 29/5/40 30/6/40 31/7/40
f 29/5/41 31/7/41 32/8/41
f 32/8/42 31/7/42 33/9/42
f 33/10/43 34/11/43 32/12/43
f 32/12/44 34/11/44 35/13/44
f 36/14/45 37/15/45 38/16/45
f 39/9/46 37/7/46 40/8/46
f 40/8/46 37/7/46 36/5/46
f 41/13/47 42/11/47 40/12/47
f 40/12/47 42/11/47 39/10/47
f 36/17/48 38/18/48 29/19/48
f 29/19/49 38/18/49 30/20/49
f 39/18/50 33/21/50 37/17/50
f 37/17/51 33/21/51 31/22/51
f 35/17/52 34/18/52 41/23/52
f 41/23/52 34/18/52 42/24/52
f 34/11/53 33/21/53 42/24/53
f 42/24/54 33/21/54 39/10/54
f 31/7/55 30/20/55 37/17/55
f 37/17/56 30/20/56 38/6/56
f 43/1/57 44/2/57 45/3/57
f 46/1/58 44/2/58 47/4/58
f 47/4/59 44/2/59 43/3/59
f 46/1/60 48/2/60 44/3/60
f 44/2/61 48/3/61 49/1/61
f 49/1/62 48/3/62 50/4/62
f 51/1/63 52/2/63 53/3/63
f 54/1/64 55/2/64 53/4/64
f 53/4/64 55/2/64 51/3/64
f 54/1/65 53/2/65 56/3/65
f 53/4/66 57/1/66 56/3/66
f 57/1/67 58/2/67 56/3/67
f 49/1/68 50/2/68 57/4/68
f 57/4/68 50/2/68 58/3/68
f 48/1/69 46/2/69 56/4/69
f 56/4/70 46/2/70 54/3/70
f 47/1/71 43/2/71 55/4/71
f 55/4/72 43/2/72 51/3/72
f 52/1/73 51/2/73 45/4/73
f 45/4/73 51/2/73 43/3/73
f 54/2/74 46/3/74 55/1/74
f 55/1/75 46/3/75 47/4/75
f 56/1/76 58/2/76 48/4/76
f 48/4/77 58/2/77 50/3/77
f 53/2/78 52/3/78 44/1/78
f 44/1/79 52/3/79 45/4/79
f 49/2/80 57/3/80 44/1/80
f 44/1/81 57/3/81 53/4/81
f 59/1/82 60/2/82 61/3/82
f 62/1/83 60/2/83 63/4/83
f 63/4/84 60/2/84 59/3/84
f 62/1/85 64/2/85 60/3/85
f 60/2/86 64/3/86 65/1/86
f 65/1/87 64/3/87 66/4/87
f 67/1/88 68/2/88 69/3/88
f 70/1/89 71/2/89 69/4/89
f 69/4/89 71/2/89 67/3/89
f 70/1/90 69/2/90 72/3/90
f 69/4/91 73/1/91 72/3/91
f 73/1/91 74/2/91 72/3/91
f 65/1/92 66/2/92 73/4/92
f 73/4/92 66/2/92 74/3/92
f 64/1/93 62/2/93 72/4/93
f 72/4/94 62/2/94 70/3/94
f 63/1/95 59/2/95 71/4/95
f 71/4/96 59/2/96 67/3/96
f 68/1/97 67/2/97 61/4/97
f 61/4/97 67/2/97 59/3/97
f 70/2/98 62/3/98 71/1/98
f 71/1/99 62/3/99 63/4/99
f 72/1/100 74/2/100 64/4/100
f 64/4/101 74/2/101 66/3/101
f 75/1/102 76/2/102 77/3/102
f 75/2/103 77/3/103 78/1/103
f 78/1/104 77/3/104 79/4/104
f 78/1/105 79/2/105 80/3/105
f 81/1/106 78/2/106 80/3/106
f 82/1/107 83/2/107 84/3/107
f 85/2/108 83/3/108 86/1/108
f 86/1/108 83/3/108 82/4/108
f 86/1/109 87/2/109 85/3/109
f 88/1/110 87/2/110 86/3/110
f 81/1/111 80/2/111 88/4/111
f 88/4/111 80/2/111 87/3/111
f 85/2/112 87/3/112 79/1/112
f 79/1/113 87/3/113 80/4/113
f 83/1/114 77/2/114 84/4/114
f 84/4/115 77/2/115 76/3/115
f 77/2/116 83/3/116 79/1/116
f 79/1/117 83/3/117 85/4/117
f 75/2/118 78/3/118 82/1/118
f 82/1/119 78/3/119 86/4/119
f 86/1/120 78/2/120 88/4/120
f 88/4/121 78/2/121 81/3/121
f 76/1/122 75/2/122 84/4/122
f 84/4/123 75/2/123 82/3/123
f 89/1/124 90/2/124 91/3/124
f 92/1/125 93/2/125 94/3/125
f 92/1/126 94/2/126 89/4/126
f 89/4/126 94/2/126 90/3/126
f 94/1/127 93/2/127 90/4/127
f 90/4/127 93/2/127 91/3/127
f 89/1/128 91/2/128 92/4/128
f 92/4/128 91/2/128 93/3/128
f 95/1/129 96/2/129 97/3/129
f 98/1/130 99/2/130 100/3/130
f 98/1/131 100/2/131 95/4/131
f 95/4/131 100/2/131 96/3/131
f 100/1/132 99/2/132 96/4/132
f 96/4/132 99/2/132 97/3/132
f 95/1/133 97/2/133 98/4/133
f 98/4/133 97/2/133 99/3/133
f 101/1/134 102/2/134 103/3/134
f 101/2/135 103/3/135 104/1/135
f 104/1/136 103/3/136 105/4/136
f 105/2/137 106/3/137 104/1/137
f 104/1/138 106/3/138 107/4/138
f 108/1/139 109/2/139 110/3/139
f 111/2/140 109/3/140 112/1/140
f 112/1/140 109/3/140 108/4/140
f 113/2/141 114/3/141 112/1/141
f 112/1/141 114/3/141 111/4/141
f 108/1/142 110/2/142 101/4/142
f 101/4/143 110/2/143 102/3/143
f 111/2/144 105/3/144 109/1/144
f 109/1/145 105/3/145 103/4/145
f 107/1/146 106/2/146 113/4/146
f 113/4/146 106/2/146 114/3/146
f 106/1/147 105/2/147 114/4/147
f 114/4/148 105/2/148 111/3/148
f 103/1/149 102/2/149 109/4/149
f 109/4/150 102/2/150 110/3/150
f 115/1/151 116/2/151 117/3/151
f 118/1/152 116/2/152 119/4/152
f 119/4/153 116/2/153 115/3/153
f 118/1/154 120/2/154 116/3/154
f 116/2/155 120/3/155 121/1/155
f 121/1/156 120/3/156 122/4/156
f 123/1/157 124/2/157 125/3/157
f 126/1/158 127/2/158 125/4/158
f 125/4/158 127/2/158 123/3/158
f 126/1/159 125/2/159 128/3/159
f 125/4/160 129/1/160 128/3/160
f 129/1/160 130/2/160 128/3/160
f 121/1/161 122/2/161 129/4/161
f 129/4/161 122/2/161 130/3/161
f 120/1/162 118/2/162 128/4/162
f 128/4/163 118/2/163 126/3/163
f 119/1/164 115/2/164 127/4/164
f 127/4/165 115/2/165 123/3/165
f 124/1/166 123/2/166 117/4/166
f 117/4/166 123/2/166 115/3/166
f 126/2/167 118/3/167 127/1/167
f 127/1/168 118/3/168 119/4/168
f 128/1/169 130/2/169 120/4/169
f 120/4/170 130/2/170 122/3/170
f 131/1/171 132/2/171 133/3/171
f 134/1/172 135/2/172 136/3/172
f 134/1/173 136/2/173 131/4/173
f 131/4/174 136/2/174 132/3/174
f 136/1/175 135/2/175 132/4/175
f 132/4/176 135/2/176 133/3/176
f 137/1/177 138/2/177 139/3/177
f 140/1/178 141/2/178 142/3/178
f 140/1/179 142/2/179 137/4/179
f 137/4/179 142/2/179 138/3/179
f 142/1/180 141/2/180 138/4/180
f 138/4/180 141/2/180 139/3/180
f 143/1/181 144/2/181 145/3/181
f 143/2/182 145/3/182 146/1/182
f 146/1/183 145/3/183 147/4/183
f 146/1/184 147/2/184 148/3/184
f 149/1/185 146/2/185 148/3/185
f 150/1/186 151/2/186 152/3/186
f 153/2/187 151/3/187 154/1/187
f 154/1/187 151/3/187 150/4/187
f 154/1/188 155/2/188 153/3/188
f 156/1/189 155/2/189 154/3/189
f 149/1/190 148/2/190 156/4/190
f 156/4/190 148/2/190 155/3/190
f 153/2/191 155/3/191 147/1/191
f 147/1/192 155/3/192 148/4/192
f 151/1/193 145/2/193 152/4/193
f 152/4/194 145/2/194 144/3/194
f 145/2/195 151/3/195 147/1/195
f 147/1/196 151/3/196 153/4/196
f 157/25/197 158/26/197 159/27/197
f 159/27/197 158/26/197 160/28/197
f 161/29/198 162/30/198 163/31/198
f 162/30/198 164/32/198 163/31/198
f 165/33/199 166/34/199 167/35/199
f 167/35/199 166/34/199 168/36/199
f 169/37/200 170/38/200 171/39/200
f 171/39/201 170/38/201 172/40/201
f 173/41/202 174/42/202 175/43/202
f 174/42/202 176/44/202 175/43/202
f 177/45/203 178/46/203 179/47/203
f 179/47/204 178/46/204 180/48/204
f 181/49/205 182/50/205 183/51/205
f 183/51/206 182/50/206 184/52/206
f 185/53/207 186/54/207 187/55/207
f 186/54/207 188/56/207 187/55/207
f 189/57/208 190/58/208 191/59/208
f 191/59/208 190/58/208 192/60/208
f 193/61/209 194/62/209 195/63/209
f 195/63/210 194/62/210 196/64/210
f 197/65/211 198/66/211 199/67/211
f 198/66/211 200/68/211 199/67/211
f 201/69/212 202/70/212 203/71/212
f 203/71/212 202/70/212 204/72/212
f 200/73/213 198/74/213 205/75/213
